<?xml version="1.0" encoding="UTF-8"?>
<!DOCTYPE svg PUBLIC "-//W3C//DTD SVG 1.1//EN" "http://www.w3.org/Graphics/SVG/1.1/DTD/svg11.dtd">
<svg xmlns="http://www.w3.org/2000/svg" version="1.1" width="475px" height="234px" style="shape-rendering:geometricPrecision; text-rendering:geometricPrecision; image-rendering:optimizeQuality; fill-rule:evenodd; clip-rule:evenodd" xmlns:xlink="http://www.w3.org/1999/xlink">
<g><path style="opacity:0.758" fill="#fefefe" d="M 133.5,25.5 C 157.144,24.7053 180.811,26.2053 204.5,30C 225.328,29.1347 245.661,31.8013 265.5,38C 306.345,53.2484 344.012,73.9151 378.5,100C 386.051,104.443 394.051,107.777 402.5,110C 420.483,112.929 432.983,106.096 440,89.5C 440.837,87.9926 442.004,87.4926 443.5,88C 453.844,108.653 452.678,128.486 440,147.5C 435.413,153.288 429.746,157.622 423,160.5C 423.207,176.242 417.374,189.076 405.5,199C 391.64,206.477 377.307,207.477 362.5,202C 361.903,200.938 361.57,199.772 361.5,198.5C 364.448,189.373 366.448,180.04 367.5,170.5C 366.988,161.978 363.654,154.811 357.5,149C 348.322,144.833 340.489,146.666 334,154.5C 324.461,172.045 311.961,187.212 296.5,200C 264.837,222.533 230.504,227.866 193.5,216C 179.641,210.141 169.808,200.308 164,186.5C 163.333,184.5 163.333,182.5 164,180.5C 172.555,198.715 186.721,209.881 206.5,214C 259.811,220.095 298.645,199.262 323,151.5C 333.137,136.26 346.637,132.093 363.5,139C 373.988,147.447 379.322,158.447 379.5,172C 378.894,178.401 377.894,184.735 376.5,191C 391.059,194.577 401.226,189.077 407,174.5C 408.954,167.626 408.788,160.793 406.5,154C 406.735,153.127 407.069,152.293 407.5,151.5C 419.811,148.273 428.644,140.94 434,129.5C 434.732,126.471 435.565,123.471 436.5,120.5C 436.167,119.833 435.833,119.167 435.5,118.5C 417.625,127.633 399.625,127.8 381.5,119C 359.171,104.167 336.504,89.8335 313.5,76C 288.152,61.4407 261.152,51.4407 232.5,46C 182.563,42.4428 154.896,65.4428 149.5,115C 150.26,120.842 151.094,126.676 152,132.5C 153.113,133.711 154.28,133.711 155.5,132.5C 160.459,126.871 165.625,121.537 171,116.5C 171.772,116.645 172.439,116.978 173,117.5C 175.5,121.833 178,126.167 180.5,130.5C 184.228,126.611 187.728,122.611 191,118.5C 192.944,119.439 194.611,120.773 196,122.5C 197.918,126.004 200.084,129.337 202.5,132.5C 206.428,125.636 210.594,118.969 215,112.5C 215.945,112.905 216.612,113.572 217,114.5C 217.265,127.785 223.765,133.285 236.5,131C 240.333,128.5 243.5,125.333 246,121.5C 249.333,114.167 252.667,106.833 256,99.5C 267.843,82.4163 283.01,78.9163 301.5,89C 312.039,96.7383 317.372,107.238 317.5,120.5C 315.738,143.219 304.071,158.052 282.5,165C 277.816,166.102 273.483,165.436 269.5,163C 301.431,158.274 314.598,140.108 309,108.5C 301.178,93.8386 289.344,89.0052 273.5,94C 270.705,95.7932 268.205,97.9598 266,100.5C 261.378,111.041 256.378,121.374 251,131.5C 239.899,144.539 227.566,145.872 214,135.5C 210.667,141.5 207.333,147.5 204,153.5C 199.993,147.999 195.827,142.666 191.5,137.5C 188.433,141.287 185.6,145.287 183,149.5C 182.261,150.574 181.261,151.241 180,151.5C 176.333,146.833 172.667,142.167 169,137.5C 162.829,143.008 157.329,149.175 152.5,156C 151.007,157.368 149.507,157.535 148,156.5C 125.932,112.833 133.765,75.6659 171.5,45C 176.567,42.1373 181.567,39.304 186.5,36.5C 148.987,31.44 112.32,34.94 76.5,47C 63.7148,51.7871 53.2148,59.6205 45,70.5C 39.8575,79.1045 37.6908,88.4378 38.5,98.5C 55.6404,99.7887 62.807,108.789 60,125.5C 52.5454,138.189 42.3788,141.023 29.5,134C 22.9083,127.894 20.7417,120.394 23,111.5C 25.1266,107.711 27.6266,104.211 30.5,101C 27.6861,83.1085 32.6861,67.7752 45.5,55C 58.4619,43.6865 73.4619,36.3532 90.5,33C 104.864,29.8294 119.197,27.3294 133.5,25.5 Z"/></g>
<g><path style="opacity:0.656" fill="#fefffe" d="M 186.5,59.5 C 199.652,58.4848 205.486,64.4848 204,77.5C 202.011,83.1936 198.178,86.0269 192.5,86C 193.654,85.0862 193.487,84.2529 192,83.5C 185.17,88.3074 179.503,87.3074 175,80.5C 172.947,72.2699 176.113,67.6032 184.5,66.5C 191.247,68.6424 194.581,73.3091 194.5,80.5C 198.311,75.3182 197.644,70.4849 192.5,66C 189.708,65.1034 187.041,63.9367 184.5,62.5C 185.193,61.4822 185.859,60.4822 186.5,59.5 Z"/></g>
</svg>
