<?xml version="1.0" encoding="UTF-8"?>
<!DOCTYPE svg PUBLIC "-//W3C//DTD SVG 1.1//EN" "http://www.w3.org/Graphics/SVG/1.1/DTD/svg11.dtd">
<svg xmlns="http://www.w3.org/2000/svg" version="1.1" width="500px" height="500px" style="shape-rendering:geometricPrecision; text-rendering:geometricPrecision; image-rendering:optimizeQuality; fill-rule:evenodd; clip-rule:evenodd" xmlns:xlink="http://www.w3.org/1999/xlink">
<g><path style="opacity:0.012" fill="#fefffe" d="M 313.5,160.5 C 313.897,159.475 314.563,159.308 315.5,160C 314.906,160.464 314.239,160.631 313.5,160.5 Z"/></g>
<g><path style="opacity:0.78" fill="#7698ad" d="M 313.5,160.5 C 314.5,161.167 315.5,161.833 316.5,162.5C 314.5,162.5 312.5,162.5 310.5,162.5C 251.167,162.5 191.833,162.5 132.5,162.5C 131.833,162.5 131.167,162.5 130.5,162.5C 130.918,161.778 131.584,161.278 132.5,161C 192.832,160.5 253.166,160.333 313.5,160.5 Z"/></g>
<g><path style="opacity:1" fill="#023a5a" d="M 132.5,162.5 C 191.833,162.5 251.167,162.5 310.5,162.5C 252.665,163.167 194.665,163.833 136.5,164.5C 194.83,165.333 253.164,165.833 311.5,166C 252.501,166.5 193.501,166.667 134.5,166.5C 132.896,165.713 132.229,164.38 132.5,162.5 Z"/></g>
<g><path style="opacity:0.576" fill="#9dbac8" d="M 130.5,162.5 C 129.167,164.5 127.5,166.167 125.5,167.5C 126.167,164.833 127.833,163.167 130.5,162.5 Z"/></g>
<g><path style="opacity:1" fill="#174b68" d="M 310.5,162.5 C 312.5,162.5 314.5,162.5 316.5,162.5C 317.492,162.328 318.158,162.662 318.5,163.5C 318.833,164.5 319.5,165.167 320.5,165.5C 322.698,165.409 323.031,166.075 321.5,167.5C 321.5,191.167 321.5,214.833 321.5,238.5C 317.263,238.031 313.263,236.864 309.5,235C 310.094,234.536 310.761,234.369 311.5,234.5C 312.5,234.5 313.5,234.5 314.5,234.5C 315.947,235.885 316.947,235.552 317.5,233.5C 318.317,231.031 318.817,228.365 319,225.5C 319.663,207.393 319.33,189.393 318,171.5C 317.825,176.019 317.325,180.353 316.5,184.5C 316.666,179.489 316.499,174.489 316,169.5C 315.329,168.748 314.496,168.414 313.5,168.5C 254.002,167.501 194.336,167.168 134.5,167.5C 134.5,167.167 134.5,166.833 134.5,166.5C 193.501,166.667 252.501,166.5 311.5,166C 253.164,165.833 194.83,165.333 136.5,164.5C 194.665,163.833 252.665,163.167 310.5,162.5 Z"/></g>
<g><path style="opacity:0.008" fill="#e5f4fd" d="M 318.5,163.5 C 319.833,163.5 320.5,164.167 320.5,165.5C 319.5,165.167 318.833,164.5 318.5,163.5 Z"/></g>
<g><path style="opacity:0.153" fill="#d1e9f6" d="M 134.5,167.5 C 194.336,167.168 254.002,167.501 313.5,168.5C 253.095,168.171 192.762,168.504 132.5,169.5C 132.5,168.167 133.167,167.5 134.5,167.5 Z"/></g>
<g><path style="opacity:0.025" fill="#eff6f9" d="M 313.5,168.5 C 314.496,168.414 315.329,168.748 316,169.5C 316.499,174.489 316.666,179.489 316.5,184.5C 315.167,184.5 313.833,184.5 312.5,184.5C 313.209,183.596 314.209,183.263 315.5,183.5C 315.666,179.154 315.499,174.821 315,170.5C 314.283,169.956 313.783,169.289 313.5,168.5 Z"/></g>
<g><path style="opacity:1" fill="#436373" d="M 147.5,173.5 C 147.5,175.167 147.5,176.833 147.5,178.5C 146.462,180.519 145.128,180.853 143.5,179.5C 142.058,178.18 141.392,176.514 141.5,174.5C 142.134,173.053 143.301,172.387 145,172.5C 146.07,172.528 146.903,172.861 147.5,173.5 Z"/></g>
<g><path style="opacity:0.016" fill="#e8f2f3" d="M 141.5,174.5 C 141.392,176.514 142.058,178.18 143.5,179.5C 142.5,179.5 141.5,179.5 140.5,179.5C 140.216,177.585 140.549,175.919 141.5,174.5 Z"/></g>
<g><path style="opacity:0.608" fill="#9fb4b7" d="M 147.5,173.5 C 149.922,175.286 149.922,176.952 147.5,178.5C 147.5,176.833 147.5,175.167 147.5,173.5 Z"/></g>
<g><path style="opacity:0.6" fill="#aebed1" d="M 152.5,173.5 C 152.325,175.621 152.659,177.621 153.5,179.5C 150.073,177.987 149.739,175.987 152.5,173.5 Z"/></g>
<g><path style="opacity:0.537" fill="#a9bfcd" d="M 162.5,173.5 C 162.5,175.167 162.5,176.833 162.5,178.5C 160.078,176.952 160.078,175.286 162.5,173.5 Z"/></g>
<g><path style="opacity:1" fill="#47657c" d="M 168.5,177.5 C 167.5,177.833 166.833,178.5 166.5,179.5C 164.872,180.853 163.538,180.519 162.5,178.5C 162.5,176.833 162.5,175.167 162.5,173.5C 165.649,171.771 167.982,172.605 169.5,176C 169.43,176.765 169.097,177.265 168.5,177.5 Z"/></g>
<g><path style="opacity:1" fill="#3f5c74" d="M 157.5,173.5 C 157.675,175.621 157.341,177.621 156.5,179.5C 155.5,180.833 154.5,180.833 153.5,179.5C 152.659,177.621 152.325,175.621 152.5,173.5C 154.167,172.167 155.833,172.167 157.5,173.5 Z"/></g>
<g><path style="opacity:0.012" fill="#c6d3d9" d="M 157.5,173.5 C 159.22,174.751 159.553,176.251 158.5,178C 159.167,178.333 159.833,178.667 160.5,179C 159.207,179.49 157.873,179.657 156.5,179.5C 157.341,177.621 157.675,175.621 157.5,173.5 Z"/></g>
<g><path style="opacity:0.01" fill="#dde5ec" d="M 168.5,177.5 C 169.66,179.203 168.993,179.869 166.5,179.5C 166.833,178.5 167.5,177.833 168.5,177.5 Z"/></g>
<g><path style="opacity:0.698" fill="#94a8b6" d="M 131.5,170.5 C 131.334,175.179 131.501,179.845 132,184.5C 192.118,183.179 252.285,183.179 312.5,184.5C 313.833,184.5 315.167,184.5 316.5,184.5C 314.735,185.461 312.735,185.795 310.5,185.5C 250.5,185.5 190.5,185.5 130.5,185.5C 130.179,180.305 130.513,175.305 131.5,170.5 Z"/></g>
<g><path style="opacity:1" fill="#083b5b" d="M 130.5,185.5 C 190.5,185.5 250.5,185.5 310.5,185.5C 310.5,185.833 310.5,186.167 310.5,186.5C 264.5,186.5 218.5,186.5 172.5,186.5C 160.829,186.333 149.162,186.5 137.5,187C 138.433,188.608 137.767,189.441 135.5,189.5C 133.431,189.176 133.098,188.342 134.5,187C 133.423,186.53 132.423,186.697 131.5,187.5C 131.167,186.833 130.833,186.167 130.5,185.5 Z"/></g>
<g><path style="opacity:1" fill="#0b4364" d="M 172.5,186.5 C 172.369,187.239 172.536,187.906 173,188.5C 218.989,188.827 265.156,188.494 311.5,187.5C 266.676,189.165 221.676,190.165 176.5,190.5C 161.167,190.5 145.833,190.5 130.5,190.5C 130.167,190.5 129.833,190.5 129.5,190.5C 130.167,189.5 130.833,188.5 131.5,187.5C 132.423,186.697 133.423,186.53 134.5,187C 133.098,188.342 133.431,189.176 135.5,189.5C 137.767,189.441 138.433,188.608 137.5,187C 149.162,186.5 160.829,186.333 172.5,186.5 Z"/></g>
<g><path style="opacity:1" fill="#044269" d="M 172.5,186.5 C 218.5,186.5 264.5,186.5 310.5,186.5C 311.167,186.5 311.5,186.833 311.5,187.5C 265.156,188.494 218.989,188.827 173,188.5C 172.536,187.906 172.369,187.239 172.5,186.5 Z"/></g>
<g><path style="opacity:1" fill="#074565" d="M 130.5,162.5 C 131.167,162.5 131.833,162.5 132.5,162.5C 132.229,164.38 132.896,165.713 134.5,166.5C 134.5,166.833 134.5,167.167 134.5,167.5C 133.167,167.5 132.5,168.167 132.5,169.5C 132.5,170.167 132.167,170.5 131.5,170.5C 130.513,175.305 130.179,180.305 130.5,185.5C 130.833,186.167 131.167,186.833 131.5,187.5C 130.833,188.5 130.167,189.5 129.5,190.5C 129.5,222.833 129.5,255.167 129.5,287.5C 128.504,287.586 127.671,287.252 127,286.5C 126.833,248.331 126.333,210.331 125.5,172.5C 125.5,170.833 125.5,169.167 125.5,167.5C 127.5,166.167 129.167,164.5 130.5,162.5 Z"/></g>
<g><path style="opacity:0.026" fill="#d4e3ea" d="M 130.5,191.5 C 130.5,191.167 130.5,190.833 130.5,190.5C 145.833,190.5 161.167,190.5 176.5,190.5C 223.167,190.5 269.833,190.5 316.5,190.5C 317.15,205.538 316.483,220.205 314.5,234.5C 313.5,234.5 312.5,234.5 311.5,234.5C 311.5,234.167 311.5,233.833 311.5,233.5C 312.833,233.5 314.167,233.5 315.5,233.5C 315.5,219.5 315.5,205.5 315.5,191.5C 254.167,191.5 192.833,191.5 131.5,191.5C 131.167,191.5 130.833,191.5 130.5,191.5 Z"/></g>
<g><path style="opacity:1" fill="#0b415d" d="M 317.5,233.5 C 317.829,218.99 317.496,204.657 316.5,190.5C 269.833,190.5 223.167,190.5 176.5,190.5C 221.676,190.165 266.676,189.165 311.5,187.5C 311.5,186.833 311.167,186.5 310.5,186.5C 310.5,186.167 310.5,185.833 310.5,185.5C 312.735,185.795 314.735,185.461 316.5,184.5C 317.325,180.353 317.825,176.019 318,171.5C 319.33,189.393 319.663,207.393 319,225.5C 318.817,228.365 318.317,231.031 317.5,233.5 Z"/></g>
<g><path style="opacity:0.044" fill="#fefefe" d="M 130.5,191.5 C 130.833,191.5 131.167,191.5 131.5,191.5C 131.519,222.708 131.519,253.708 131.5,284.5C 130.502,253.671 130.169,222.671 130.5,191.5 Z"/></g>
<g><path style="opacity:0.84" fill="#355e71" d="M 129.5,190.5 C 129.833,190.5 130.167,190.5 130.5,190.5C 130.5,190.833 130.5,191.167 130.5,191.5C 130.169,222.671 130.502,253.671 131.5,284.5C 131.833,285.167 132.167,285.833 132.5,286.5C 132.5,286.833 132.5,287.167 132.5,287.5C 131.5,287.5 130.5,287.5 129.5,287.5C 129.5,255.167 129.5,222.833 129.5,190.5 Z"/></g>
<g><path style="opacity:0.678" fill="#5d8397" d="M 316.5,190.5 C 317.496,204.657 317.829,218.99 317.5,233.5C 316.947,235.552 315.947,235.885 314.5,234.5C 316.483,220.205 317.15,205.538 316.5,190.5 Z"/></g>
<g><path style="opacity:0.875" fill="#6d8c99" d="M 125.5,167.5 C 125.5,169.167 125.5,170.833 125.5,172.5C 125.5,210.167 125.5,247.833 125.5,285.5C 125.167,285.5 124.833,285.5 124.5,285.5C 123.336,247.336 123.169,209.002 124,170.5C 124.232,169.263 124.732,168.263 125.5,167.5 Z"/></g>
<g><path style="opacity:0.027" fill="#f2f7fa" d="M 292.5,234.5 C 292.5,234.833 292.5,235.167 292.5,235.5C 291.833,235.5 291.167,235.5 290.5,235.5C 290.409,233.302 291.075,232.969 292.5,234.5 Z"/></g>
<g><path style="opacity:0.643" fill="#89a8b4" d="M 297.5,233.5 C 296.07,234.537 294.403,235.204 292.5,235.5C 292.5,235.167 292.5,234.833 292.5,234.5C 294.042,233.699 295.708,233.366 297.5,233.5 Z"/></g>
<g><path style="opacity:1" fill="#2e5671" d="M 321.5,167.5 C 322.222,167.918 322.722,168.584 323,169.5C 323.167,192.507 323.667,215.507 324.5,238.5C 326.521,239.855 328.188,241.521 329.5,243.5C 330.08,245.749 331.413,247.415 333.5,248.5C 333.427,250.027 334.094,251.027 335.5,251.5C 335.5,252.833 335.5,254.167 335.5,255.5C 334.883,255.389 334.383,255.056 334,254.5C 333.828,260.681 333.328,266.681 332.5,272.5C 332.5,271.833 332.5,271.167 332.5,270.5C 332.5,268.5 332.5,266.5 332.5,264.5C 332.889,261.447 332.223,258.78 330.5,256.5C 329.662,256.158 329.328,255.492 329.5,254.5C 329.5,253.833 329.167,253.5 328.5,253.5C 328.167,252.833 327.833,252.167 327.5,251.5C 327.573,249.973 326.906,248.973 325.5,248.5C 324.5,248.167 323.833,247.5 323.5,246.5C 322.738,244.738 321.404,243.738 319.5,243.5C 318.833,243.5 318.167,243.5 317.5,243.5C 317.5,243.167 317.5,242.833 317.5,242.5C 316.365,240.787 314.698,240.12 312.5,240.5C 312.167,240.5 311.833,240.5 311.5,240.5C 309.321,239.074 306.821,238.408 304,238.5C 302.293,238.508 300.793,238.842 299.5,239.5C 297.102,239.259 295.102,239.926 293.5,241.5C 293.158,242.338 292.492,242.672 291.5,242.5C 290.508,242.328 289.842,242.662 289.5,243.5C 289.5,244.167 289.167,244.5 288.5,244.5C 286.973,244.427 285.973,245.094 285.5,246.5C 285.5,246.833 285.5,247.167 285.5,247.5C 285.167,247.5 284.833,247.5 284.5,247.5C 283.026,248.436 282.026,249.77 281.5,251.5C 280.094,251.973 279.427,252.973 279.5,254.5C 278.442,255.6 277.608,256.934 277,258.5C 276.184,263.684 276.35,268.684 277.5,273.5C 278.5,276.167 279.5,278.833 280.5,281.5C 280.5,282.167 280.5,282.833 280.5,283.5C 278.461,284.672 277.128,286.338 276.5,288.5C 276.34,286.847 275.674,285.514 274.5,284.5C 272.151,279.269 270.817,273.769 270.5,268C 270.928,262.361 271.928,256.861 273.5,251.5C 274.906,251.027 275.573,250.027 275.5,248.5C 276.906,248.027 277.573,247.027 277.5,245.5C 278.5,245.167 279.167,244.5 279.5,243.5C 280.5,243.167 281.167,242.5 281.5,241.5C 281.5,240.833 281.833,240.5 282.5,240.5C 283.71,240.068 284.71,239.401 285.5,238.5C 287.027,238.573 288.027,237.906 288.5,236.5C 288.842,235.662 289.508,235.328 290.5,235.5C 291.167,235.5 291.833,235.5 292.5,235.5C 294.403,235.204 296.07,234.537 297.5,233.5C 302.167,232.167 306.833,232.167 311.5,233.5C 311.5,233.833 311.5,234.167 311.5,234.5C 310.761,234.369 310.094,234.536 309.5,235C 313.263,236.864 317.263,238.031 321.5,238.5C 321.5,214.833 321.5,191.167 321.5,167.5 Z"/></g>
<g><path style="opacity:0.02" fill="#ecf2f3" d="M 285.5,238.5 C 284.71,239.401 283.71,240.068 282.5,240.5C 282.351,239.448 282.517,238.448 283,237.5C 283.671,238.252 284.504,238.586 285.5,238.5 Z"/></g>
<g><path style="opacity:0.643" fill="#9fb6c0" d="M 288.5,236.5 C 288.027,237.906 287.027,238.573 285.5,238.5C 285.973,237.094 286.973,236.427 288.5,236.5 Z"/></g>
<g><path style="opacity:0.459" fill="#98b5c8" d="M 299.5,239.5 C 300.793,238.842 302.293,238.508 304,238.5C 306.821,238.408 309.321,239.074 311.5,240.5C 309.836,241.223 308.169,240.89 306.5,239.5C 304.167,239.5 301.833,239.5 299.5,239.5 Z"/></g>
<g><path style="opacity:0.01" fill="#e4edf1" d="M 299.5,239.5 C 301.833,239.5 304.167,239.5 306.5,239.5C 305.122,240.234 303.622,240.901 302,241.5C 299.226,240.477 296.393,240.477 293.5,241.5C 295.102,239.926 297.102,239.259 299.5,239.5 Z"/></g>
<g><path style="opacity:0.761" fill="#93abbb" d="M 312.5,240.5 C 314.698,240.12 316.365,240.787 317.5,242.5C 315.597,242.204 313.93,241.537 312.5,240.5 Z"/></g>
<g><path style="opacity:0.243" fill="#c9dde6" d="M 281.5,241.5 C 281.167,242.5 280.5,243.167 279.5,243.5C 279.5,242.167 280.167,241.5 281.5,241.5 Z"/></g>
<g><path style="opacity:0.018" fill="#eaf3f8" d="M 279.5,243.5 C 279.167,244.5 278.5,245.167 277.5,245.5C 276.5,243.167 277.167,242.5 279.5,243.5 Z"/></g>
<g><path style="opacity:0.016" fill="#fefffe" d="M 330.5,242.5 C 331.833,243.167 331.833,243.167 330.5,242.5 Z"/></g>
<g><path style="opacity:0.017" fill="#eff7f9" d="M 289.5,243.5 C 289.842,242.662 290.508,242.328 291.5,242.5C 291.918,243.222 292.584,243.722 293.5,244C 292.584,244.374 291.75,244.874 291,245.5C 290.722,244.584 290.222,243.918 289.5,243.5 Z"/></g>
<g><path style="opacity:0.017" fill="#fefffe" d="M 317.5,243.5 C 318.368,245.892 317.701,246.059 315.5,244C 316.094,243.536 316.761,243.369 317.5,243.5 Z"/></g>
<g><path style="opacity:0.011" fill="#edf2f3" d="M 288.5,244.5 C 289.651,247.053 288.651,248.386 285.5,248.5C 285.5,248.167 285.5,247.833 285.5,247.5C 286.833,247.167 286.833,246.833 285.5,246.5C 285.973,245.094 286.973,244.427 288.5,244.5 Z"/></g>
<g><path style="opacity:0.025" fill="#cfdde4" d="M 319.5,243.5 C 321.404,243.738 322.738,244.738 323.5,246.5C 322.127,246.657 320.793,246.49 319.5,246C 320.598,245.23 320.598,244.397 319.5,243.5 Z"/></g>
<g><path style="opacity:0.855" fill="#85a4af" d="M 329.5,243.5 C 329.833,243.5 330.167,243.5 330.5,243.5C 331.925,244.922 332.925,246.589 333.5,248.5C 331.413,247.415 330.08,245.749 329.5,243.5 Z"/></g>
<g><path style="opacity:0.02" fill="#d6e2e7" d="M 277.5,245.5 C 277.573,247.027 276.906,248.027 275.5,248.5C 274.697,247.577 274.53,246.577 275,245.5C 275.77,246.598 276.603,246.598 277.5,245.5 Z"/></g>
<g><path style="opacity:0.557" fill="#b8ccd8" d="M 275.5,248.5 C 275.573,250.027 274.906,251.027 273.5,251.5C 272.509,249.877 273.176,248.877 275.5,248.5 Z"/></g>
<g><path style="opacity:0.009" fill="#eff7f9" d="M 284.5,247.5 C 284.5,248.167 284.833,248.5 285.5,248.5C 284.443,249.784 283.443,251.117 282.5,252.5C 282.5,251.833 282.167,251.5 281.5,251.5C 282.026,249.77 283.026,248.436 284.5,247.5 Z"/></g>
<g><path style="opacity:0.004" fill="#cedee6" d="M 325.5,248.5 C 326.906,248.973 327.573,249.973 327.5,251.5C 326.094,251.027 325.427,250.027 325.5,248.5 Z"/></g>
<g><path style="opacity:0.216" fill="#c0cfdb" d="M 333.5,248.5 C 334.906,248.973 335.573,249.973 335.5,251.5C 334.094,251.027 333.427,250.027 333.5,248.5 Z"/></g>
<g><path style="opacity:0.016" fill="#d5e5ec" d="M 281.5,251.5 C 282.167,251.5 282.5,251.833 282.5,252.5C 281.71,253.401 280.71,254.068 279.5,254.5C 279.427,252.973 280.094,251.973 281.5,251.5 Z"/></g>
<g><path style="opacity:0.022" fill="#cfdce1" d="M 299.5,254.5 C 298.833,254.5 298.5,254.833 298.5,255.5C 296.958,254.699 295.292,254.366 293.5,254.5C 293.5,256.167 293.5,257.833 293.5,259.5C 292.203,257.307 292.203,254.973 293.5,252.5C 295.657,253.05 297.657,253.717 299.5,254.5 Z"/></g>
<g><path style="opacity:0.02" fill="#fefffe" d="M 328.5,253.5 C 329.167,253.5 329.5,253.833 329.5,254.5C 327.591,255.679 327.258,255.346 328.5,253.5 Z"/></g>
<g><path style="opacity:0.012" fill="#d5e5eb" d="M 279.5,254.5 C 280.914,256.138 280.58,257.472 278.5,258.5C 278.709,259.086 279.043,259.586 279.5,260C 277.601,264.178 276.935,268.678 277.5,273.5C 276.35,268.684 276.184,263.684 277,258.5C 277.608,256.934 278.442,255.6 279.5,254.5 Z"/></g>
<g><path style="opacity:0.722" fill="#95b0bd" d="M 317.5,254.5 C 315.053,254.615 313.053,255.615 311.5,257.5C 311.5,257.167 311.5,256.833 311.5,256.5C 312.999,252.844 314.999,252.177 317.5,254.5 Z"/></g>
<g><path style="opacity:0.678" fill="#9cb4c0" d="M 335.5,251.5 C 336.309,252.469 337.309,253.302 338.5,254C 337.862,255.707 337.862,257.54 338.5,259.5C 337.5,258.167 336.5,256.833 335.5,255.5C 335.5,254.167 335.5,252.833 335.5,251.5 Z"/></g>
<g><path style="opacity:0.015" fill="#dee8ed" d="M 314.5,271.5 C 312.648,270.48 311.315,268.98 310.5,267C 312.615,263.882 315.115,261.048 318,258.5C 318.579,257.072 318.412,255.738 317.5,254.5C 318.117,254.389 318.617,254.056 319,253.5C 319.795,259.677 317.628,264.51 312.5,268C 313.623,269.044 314.956,269.71 316.5,270C 315.584,270.278 314.918,270.778 314.5,271.5 Z"/></g>
<g><path style="opacity:0.455" fill="#b1c8cf" d="M 330.5,256.5 C 332.223,258.78 332.889,261.447 332.5,264.5C 331.469,262.039 330.802,259.373 330.5,256.5 Z"/></g>
<g><path style="opacity:0.216" fill="#c0d7e0" d="M 273.5,251.5 C 271.928,256.861 270.928,262.361 270.5,268C 270.817,273.769 272.151,279.269 274.5,284.5C 270.779,279.481 269.113,273.647 269.5,267C 269.966,263.503 269.966,260.17 269.5,257C 271.065,255.95 272.398,254.116 273.5,251.5 Z"/></g>
<g><path style="opacity:0.009" fill="#fefffe" d="M 298.5,268.5 C 297.833,268.5 297.5,268.833 297.5,269.5C 296.957,269.44 296.624,269.107 296.5,268.5C 297.257,267.227 297.923,267.227 298.5,268.5 Z"/></g>
<g><path style="opacity:1" fill="#164662" d="M 298.5,255.5 C 298.833,256.5 299.5,257.167 300.5,257.5C 302.167,258.5 303.5,259.833 304.5,261.5C 306.128,262.853 307.462,262.519 308.5,260.5C 309.167,259.167 310.167,258.167 311.5,257.5C 313.053,255.615 315.053,254.615 317.5,254.5C 318.412,255.738 318.579,257.072 318,258.5C 315.115,261.048 312.615,263.882 310.5,267C 311.315,268.98 312.648,270.48 314.5,271.5C 315.5,273.167 316.833,274.5 318.5,275.5C 318.616,278.91 316.95,280.244 313.5,279.5C 313.167,279.5 312.833,279.5 312.5,279.5C 312.5,278.833 312.167,278.5 311.5,278.5C 311.5,277.833 311.167,277.5 310.5,277.5C 310.5,277.167 310.5,276.833 310.5,276.5C 310.167,275.5 309.5,274.833 308.5,274.5C 307.395,273.4 306.062,272.733 304.5,272.5C 302.037,274.461 299.703,276.628 297.5,279C 296.207,279.49 294.873,279.657 293.5,279.5C 293.517,277.435 293.85,275.435 294.5,273.5C 296.773,273.043 298.106,271.71 298.5,269.5C 298.5,269.167 298.5,268.833 298.5,268.5C 299.289,268.217 299.956,267.717 300.5,267C 297.961,264.63 295.628,262.13 293.5,259.5C 293.5,257.833 293.5,256.167 293.5,254.5C 295.292,254.366 296.958,254.699 298.5,255.5 Z M 304.5,272.5 C 306.062,272.733 307.395,273.4 308.5,274.5C 308.158,275.338 307.492,275.672 306.5,275.5C 306.5,274.833 306.167,274.5 305.5,274.5C 305.167,273.833 304.833,273.167 304.5,272.5 Z"/></g>
<g><path style="opacity:0.718" fill="#7fa6b9" d="M 307.5,260.5 C 307.833,260.5 308.167,260.5 308.5,260.5C 307.462,262.519 306.128,262.853 304.5,261.5C 305.609,261.443 306.609,261.11 307.5,260.5 Z"/></g>
<g><path style="opacity:0.01" fill="#f6fdff" d="M 311.5,256.5 C 311.5,256.833 311.5,257.167 311.5,257.5C 310.167,258.167 309.167,259.167 308.5,260.5C 308.167,260.5 307.833,260.5 307.5,260.5C 307.389,259.883 307.056,259.383 306.5,259C 308.32,258.021 309.487,256.521 310,254.5C 310.278,255.416 310.778,256.082 311.5,256.5 Z"/></g>
<g><path style="opacity:0.004" fill="#d5dee6" d="M 299.5,254.5 C 300.404,255.209 300.737,256.209 300.5,257.5C 299.5,257.167 298.833,256.5 298.5,255.5C 299.167,255.5 299.5,255.167 299.5,254.5 Z"/></g>
<g><path style="opacity:0.729" fill="#a2bbc7" d="M 297.5,269.5 C 297.833,269.5 298.167,269.5 298.5,269.5C 298.106,271.71 296.773,273.043 294.5,273.5C 295.211,271.97 296.211,270.637 297.5,269.5 Z"/></g>
<g><path style="opacity:0.012" fill="#dfe7ec" d="M 314.5,271.5 C 317.893,271.464 319.227,272.797 318.5,275.5C 316.833,274.5 315.5,273.167 314.5,271.5 Z"/></g>
<g><path style="opacity:0.013" fill="#d5e2e7" d="M 304.5,272.5 C 304.833,273.167 305.167,273.833 305.5,274.5C 303.05,275.074 301.05,276.908 299.5,280C 297.288,280.789 295.288,280.622 293.5,279.5C 294.873,279.657 296.207,279.49 297.5,279C 299.703,276.628 302.037,274.461 304.5,272.5 Z"/></g>
<g><path style="opacity:0.592" fill="#bcd1dc" d="M 332.5,270.5 C 332.5,271.167 332.5,271.833 332.5,272.5C 332.598,274.553 331.931,276.22 330.5,277.5C 330.461,276.417 330.127,275.417 329.5,274.5C 329.846,273.304 330.346,273.304 331,274.5C 331.21,272.942 331.71,271.609 332.5,270.5 Z"/></g>
<g><path style="opacity:0.486" fill="#9fb7c0" d="M 294.5,273.5 C 293.85,275.435 293.517,277.435 293.5,279.5C 292.861,278.903 292.528,278.07 292.5,277C 292.387,275.301 293.053,274.134 294.5,273.5 Z"/></g>
<g><path style="opacity:0.009" fill="#f1f9fc" d="M 308.5,274.5 C 309.5,274.833 310.167,275.5 310.5,276.5C 309.833,276.5 309.5,276.833 309.5,277.5C 308.29,277.068 307.29,276.401 306.5,275.5C 307.492,275.672 308.158,275.338 308.5,274.5 Z"/></g>
<g><path style="opacity:0.009" fill="#e0ecf3" d="M 338.5,259.5 C 339.414,265.493 339.747,271.493 339.5,277.5C 339.043,278.298 338.376,278.631 337.5,278.5C 338.32,272.203 338.653,265.869 338.5,259.5 Z"/></g>
<g><path style="opacity:0.02" fill="#fefffe" d="M 309.5,277.5 C 309.833,277.5 310.167,277.5 310.5,277.5C 311.167,277.5 311.5,277.833 311.5,278.5C 312.167,278.5 312.5,278.833 312.5,279.5C 310.668,280.718 309.668,280.051 309.5,277.5 Z"/></g>
<g><path style="opacity:0.012" fill="#e6eef1" d="M 318.5,275.5 C 320.576,277.67 320.743,280.003 319,282.5C 317.281,281.131 315.448,280.131 313.5,279.5C 316.95,280.244 318.616,278.91 318.5,275.5 Z"/></g>
<g><path style="opacity:0.008" fill="#f2f8ff" d="M 327.5,280.5 C 327.842,279.662 328.508,279.328 329.5,279.5C 329.672,280.492 329.338,281.158 328.5,281.5C 328.5,280.833 328.167,280.5 327.5,280.5 Z"/></g>
<g><path style="opacity:0.01" fill="#ecf5f9" d="M 337.5,279.5 C 338.097,279.735 338.43,280.235 338.5,281C 337.876,283.085 336.876,284.918 335.5,286.5C 334.115,283.715 334.782,281.382 337.5,279.5 Z"/></g>
<g><path style="opacity:0.021" fill="#e9eff3" d="M 281.5,283.5 C 281.167,283.5 280.833,283.5 280.5,283.5C 280.5,282.833 280.5,282.167 280.5,281.5C 282.677,280.496 283.011,281.162 281.5,283.5 Z"/></g>
<g><path style="opacity:0.012" fill="#e2e9ee" d="M 327.5,280.5 C 328.167,280.5 328.5,280.833 328.5,281.5C 328.573,283.027 327.906,284.027 326.5,284.5C 324.833,286.5 323.167,288.5 321.5,290.5C 320.609,291.11 319.609,291.443 318.5,291.5C 320.472,286.873 323.472,283.207 327.5,280.5 Z"/></g>
<g><path style="opacity:0.014" fill="#e8f1f4" d="M 341.5,288.5 C 338.833,288.833 338.833,289.167 341.5,289.5C 341.833,290.167 342.167,290.833 342.5,291.5C 339.802,291.155 337.802,289.822 336.5,287.5C 337.315,286.571 338.148,285.571 339,284.5C 339.662,285.984 340.496,287.317 341.5,288.5 Z"/></g>
<g><path style="opacity:0.012" fill="#d8e3e9" d="M 124.5,285.5 C 124.833,285.5 125.167,285.5 125.5,285.5C 125.833,286.833 126.167,288.167 126.5,289.5C 124.824,288.817 124.157,287.483 124.5,285.5 Z"/></g>
<g><path style="opacity:0.443" fill="#90b1c4" d="M 274.5,284.5 C 275.674,285.514 276.34,286.847 276.5,288.5C 275.5,288.5 274.5,288.5 273.5,288.5C 226.428,288.828 179.428,288.495 132.5,287.5C 132.5,287.167 132.5,286.833 132.5,286.5C 179.792,287.657 227.126,287.823 274.5,287C 273.833,286.667 273.167,286.333 272.5,286C 273.416,285.722 274.082,285.222 274.5,284.5 Z"/></g>
<g><path style="opacity:0.973" fill="#7d99a9" d="M 281.5,283.5 C 283.833,284.5 285.5,286.167 286.5,288.5C 284.336,288.279 282.67,287.279 281.5,285.5C 281.5,284.833 281.5,284.167 281.5,283.5 Z"/></g>
<g><path style="opacity:0.98" fill="#0b3f5a" d="M 125.5,172.5 C 126.333,210.331 126.833,248.331 127,286.5C 127.671,287.252 128.504,287.586 129.5,287.5C 130.5,287.5 131.5,287.5 132.5,287.5C 179.428,288.495 226.428,288.828 273.5,288.5C 226.764,289.169 179.931,289.836 133,290.5C 132.667,290.167 132.333,289.833 132,289.5C 131.7,291.066 132.2,292.399 133.5,293.5C 132.833,293.5 132.167,293.5 131.5,293.5C 131.027,292.094 130.027,291.427 128.5,291.5C 128.167,290.5 127.5,289.833 126.5,289.5C 126.167,288.167 125.833,286.833 125.5,285.5C 125.5,247.833 125.5,210.167 125.5,172.5 Z"/></g>
<g><path style="opacity:0.004" fill="#fefffe" d="M 341.5,288.5 C 342.833,289.167 342.833,289.167 341.5,288.5 Z"/></g>
<g><path style="opacity:0.012" fill="#f4f8f9" d="M 318.5,291.5 C 318.158,292.338 317.492,292.672 316.5,292.5C 315.51,289.161 316.177,288.828 318.5,291.5 Z"/></g>
<g><path style="opacity:1" fill="#164665" d="M 335.5,255.5 C 336.5,256.833 337.5,258.167 338.5,259.5C 338.653,265.869 338.32,272.203 337.5,278.5C 337.5,278.833 337.5,279.167 337.5,279.5C 334.782,281.382 334.115,283.715 335.5,286.5C 336.167,286.5 336.5,286.833 336.5,287.5C 337.802,289.822 339.802,291.155 342.5,291.5C 342.5,293.167 342.5,294.833 342.5,296.5C 341.5,296.5 340.5,296.5 339.5,296.5C 338.167,296.5 336.833,296.5 335.5,296.5C 334.301,292.559 331.968,290.892 328.5,291.5C 328.5,292.167 328.5,292.833 328.5,293.5C 328.5,293.833 328.5,294.167 328.5,294.5C 327.25,294.577 326.417,295.244 326,296.5C 322.408,296.074 320.908,294.074 321.5,290.5C 323.167,288.5 324.833,286.5 326.5,284.5C 327.906,284.027 328.573,283.027 328.5,281.5C 329.338,281.158 329.672,280.492 329.5,279.5C 329.328,278.508 329.662,277.842 330.5,277.5C 331.931,276.22 332.598,274.553 332.5,272.5C 333.328,266.681 333.828,260.681 334,254.5C 334.383,255.056 334.883,255.389 335.5,255.5 Z M 329.5,293.5 C 331.353,292.386 331.853,293.052 331,295.5C 330.283,294.956 329.783,294.289 329.5,293.5 Z"/></g>
<g><path style="opacity:0.008" fill="#d8e5ea" d="M 126.5,289.5 C 127.5,289.833 128.167,290.5 128.5,291.5C 126.797,292.66 126.131,291.993 126.5,289.5 Z"/></g>
<g><path style="opacity:1" fill="#04415d" d="M 280.5,283.5 C 280.833,283.5 281.167,283.5 281.5,283.5C 281.5,284.167 281.5,284.833 281.5,285.5C 281.5,287.167 281.5,288.833 281.5,290.5C 284.248,290.402 284.914,291.402 283.5,293.5C 233.5,293.5 183.5,293.5 133.5,293.5C 132.2,292.399 131.7,291.066 132,289.5C 132.333,289.833 132.667,290.167 133,290.5C 179.931,289.836 226.764,289.169 273.5,288.5C 274.5,288.5 275.5,288.5 276.5,288.5C 277.128,286.338 278.461,284.672 280.5,283.5 Z"/></g>
<g><path style="opacity:0.38" fill="#98b5c3" d="M 128.5,291.5 C 130.027,291.427 131.027,292.094 131.5,293.5C 129.973,293.573 128.973,292.906 128.5,291.5 Z"/></g>
<g><path style="opacity:0.024" fill="#dce5e9" d="M 328.5,291.5 C 331.968,290.892 334.301,292.559 335.5,296.5C 334.209,296.263 333.209,296.596 332.5,297.5C 330.77,296.974 329.436,295.974 328.5,294.5C 328.5,294.167 328.5,293.833 328.5,293.5C 328.833,293.5 329.167,293.5 329.5,293.5C 329.672,292.508 329.338,291.842 328.5,291.5 Z M 329.5,293.5 C 329.783,294.289 330.283,294.956 331,295.5C 331.853,293.052 331.353,292.386 329.5,293.5 Z"/></g>
<g><path style="opacity:0.467" fill="#93b2c3" d="M 131.5,293.5 C 132.167,293.5 132.833,293.5 133.5,293.5C 183.5,293.5 233.5,293.5 283.5,293.5C 283.833,294.167 284.167,294.833 284.5,295.5C 283.833,295.5 283.167,295.5 282.5,295.5C 232.459,294.293 182.293,294.293 132,295.5C 131.536,294.906 131.369,294.239 131.5,293.5 Z"/></g>
<g><path style="opacity:0.675" fill="#a0bbc6" d="M 344.5,293.5 C 346.167,294.5 347.5,295.833 348.5,297.5C 346.167,297.167 344.833,295.833 344.5,293.5 Z"/></g>
<g><path style="opacity:0.012" fill="#fefffe" d="M 282.5,295.5 C 282.5,295.833 282.5,296.167 282.5,296.5C 277.167,296.167 277.167,295.833 282.5,295.5 Z"/></g>
<g><path style="opacity:0.004" fill="#fefffe" d="M 282.5,296.5 C 283.833,297.167 283.833,297.167 282.5,296.5 Z"/></g>
<g><path style="opacity:0.01" fill="#d1dae2" d="M 284.5,295.5 C 286.027,295.427 287.027,296.094 287.5,297.5C 286.833,297.5 286.5,297.833 286.5,298.5C 285.599,297.71 284.932,296.71 284.5,295.5 Z"/></g>
<g><path style="opacity:0.059" fill="#d3e4e8" d="M 335.5,296.5 C 336.833,296.5 338.167,296.5 339.5,296.5C 339.557,297.609 339.89,298.609 340.5,299.5C 339.833,299.5 339.167,299.5 338.5,299.5C 338.5,298.833 338.167,298.5 337.5,298.5C 336.833,297.833 336.167,297.167 335.5,296.5 Z"/></g>
<g><path style="opacity:0.016" fill="#fefffe" d="M 286.5,298.5 C 286.833,298.5 287.167,298.5 287.5,298.5C 287.315,299.17 286.981,299.17 286.5,298.5 Z"/></g>
<g><path style="opacity:1" fill="#28516d" d="M 281.5,285.5 C 282.67,287.279 284.336,288.279 286.5,288.5C 288.537,289.846 290.537,291.18 292.5,292.5C 292.962,293.88 293.962,294.547 295.5,294.5C 298.468,295.069 301.468,295.403 304.5,295.5C 308.141,295.685 311.474,295.019 314.5,293.5C 314.842,292.662 315.508,292.328 316.5,292.5C 317.492,292.672 318.158,292.338 318.5,291.5C 319.609,291.443 320.609,291.11 321.5,290.5C 320.908,294.074 322.408,296.074 326,296.5C 326.417,295.244 327.25,294.577 328.5,294.5C 329.436,295.974 330.77,296.974 332.5,297.5C 332.5,297.833 332.5,298.167 332.5,298.5C 331.292,299.234 329.959,299.567 328.5,299.5C 328.629,301.216 328.962,302.883 329.5,304.5C 328.121,301.656 326.121,299.156 323.5,297C 322.563,296.308 321.897,296.475 321.5,297.5C 321.5,297.833 321.5,298.167 321.5,298.5C 319.254,299.455 316.921,300.122 314.5,300.5C 313.209,300.263 312.209,300.596 311.5,301.5C 311.5,301.833 311.5,302.167 311.5,302.5C 307.167,302.5 302.833,302.5 298.5,302.5C 298.5,302.167 298.5,301.833 298.5,301.5C 295.855,299.69 292.855,298.69 289.5,298.5C 288.833,298.5 288.167,298.5 287.5,298.5C 287.5,298.167 287.5,297.833 287.5,297.5C 287.027,296.094 286.027,295.427 284.5,295.5C 284.167,294.833 283.833,294.167 283.5,293.5C 284.914,291.402 284.248,290.402 281.5,290.5C 281.5,288.833 281.5,287.167 281.5,285.5 Z"/></g>
<g><path style="opacity:0.007" fill="#fefffe" d="M 321.5,298.5 C 321.833,298.5 322.167,298.5 322.5,298.5C 322.5,299.167 322.833,299.5 323.5,299.5C 322.749,300.573 321.749,300.74 320.5,300C 321.056,299.617 321.389,299.117 321.5,298.5 Z"/></g>
<g><path style="opacity:0.122" fill="#d8e8ee" d="M 292.5,292.5 C 294.482,293.817 296.482,293.817 298.5,292.5C 301.063,292.737 301.063,293.237 298.5,294C 301.833,294.667 305.167,294.667 308.5,294C 305.879,293.094 306.046,292.594 309,292.5C 310.972,293.427 312.805,293.76 314.5,293.5C 311.474,295.019 308.141,295.685 304.5,295.5C 301.468,295.403 298.468,295.069 295.5,294.5C 293.962,294.547 292.962,293.88 292.5,292.5 Z"/></g>
<g><path style="opacity:0.017" fill="#f9fbfc" d="M 332.5,297.5 C 333.79,298.058 334.623,299.058 335,300.5C 335.417,299.244 336.25,298.577 337.5,298.5C 338.167,298.5 338.5,298.833 338.5,299.5C 339.167,300.833 339.833,300.833 340.5,299.5C 341.833,300.167 342.833,301.167 343.5,302.5C 344.5,302.833 345.167,303.5 345.5,304.5C 347.5,305.833 349.167,307.5 350.5,309.5C 351.833,310.167 352.833,311.167 353.5,312.5C 354.5,312.833 355.167,313.5 355.5,314.5C 353.011,314.702 350.677,314.202 348.5,313C 348.454,310.898 347.454,308.898 345.5,307C 342.936,305.604 340.269,304.437 337.5,303.5C 337.918,302.778 338.584,302.278 339.5,302C 337.125,299.593 336.125,300.093 336.5,303.5C 334.457,302.421 333.124,300.754 332.5,298.5C 332.5,298.167 332.5,297.833 332.5,297.5 Z M 337.5,303.5 C 337.167,303.5 336.833,303.5 336.5,303.5C 336.125,300.093 337.125,299.593 339.5,302C 338.584,302.278 337.918,302.778 337.5,303.5 Z"/></g>
<g><path style="opacity:0.702" fill="#8aa3b5" d="M 289.5,298.5 C 292.855,298.69 295.855,299.69 298.5,301.5C 295.084,301.472 292.084,300.472 289.5,298.5 Z"/></g>
<g><path style="opacity:0.161" fill="#d5e8ed" d="M 311.5,301.5 C 312.209,300.596 313.209,300.263 314.5,300.5C 314.5,300.833 314.5,301.167 314.5,301.5C 313.833,301.833 313.167,302.167 312.5,302.5C 312.5,301.833 312.167,301.5 311.5,301.5 Z"/></g>
<g><path style="opacity:0.682" fill="#a1bac3" d="M 350.5,299.5 C 352.5,300.833 354.167,302.5 355.5,304.5C 352.833,303.833 351.167,302.167 350.5,299.5 Z"/></g>
<g><path style="opacity:0.02" fill="#fefffe" d="M 314.5,301.5 C 315.239,301.369 315.906,301.536 316.5,302C 315.563,302.692 314.897,302.525 314.5,301.5 Z"/></g>
<g><path style="opacity:0.004" fill="#fefffe" d="M 322.5,301.5 C 323.833,302.167 323.833,302.167 322.5,301.5 Z"/></g>
<g><path style="opacity:0.014" fill="#fefffe" d="M 325.5,301.5 C 325.631,302.239 325.464,302.906 325,303.5C 324.308,302.563 324.475,301.897 325.5,301.5 Z"/></g>
<g><path style="opacity:0.427" fill="#b3c4cd" d="M 321.5,297.5 C 321.897,296.475 322.563,296.308 323.5,297C 326.121,299.156 328.121,301.656 329.5,304.5C 331.555,306.555 333.221,308.888 334.5,311.5C 333.883,311.611 333.383,311.944 333,312.5C 330.637,308.655 328.137,304.989 325.5,301.5C 325.167,300.5 324.5,299.833 323.5,299.5C 322.833,299.5 322.5,299.167 322.5,298.5C 322.5,297.833 322.167,297.5 321.5,297.5 Z"/></g>
<g><path style="opacity:0.004" fill="#fefffe" d="M 298.5,302.5 C 297.833,303.167 297.833,303.167 298.5,302.5 Z"/></g>
<g><path style="opacity:0.004" fill="#fefffe" d="M 311.5,302.5 C 311.833,302.5 312.167,302.5 312.5,302.5C 312.315,303.17 311.981,303.17 311.5,302.5 Z"/></g>
<g><path style="opacity:0.6" fill="#b0c6ce" d="M 336.5,303.5 C 336.833,303.5 337.167,303.5 337.5,303.5C 344.589,310.902 351.256,317.902 357.5,324.5C 349.479,318.479 342.479,311.479 336.5,303.5 Z"/></g>
<g><path style="opacity:0.678" fill="#9eb6c5" d="M 355.5,304.5 C 356.833,305.167 357.833,306.167 358.5,307.5C 356.5,307.5 355.5,306.5 355.5,304.5 Z"/></g>
<g><path style="opacity:0.004" fill="#f1fcff" d="M 358.5,307.5 C 359.833,307.5 360.5,308.167 360.5,309.5C 359.5,309.167 358.833,308.5 358.5,307.5 Z"/></g>
<g><path style="opacity:0.004" fill="#f1fafc" d="M 360.5,309.5 C 361.833,309.5 362.5,310.167 362.5,311.5C 361.5,311.167 360.833,310.5 360.5,309.5 Z"/></g>
<g><path style="opacity:1" fill="#114362" d="M 332.5,298.5 C 333.124,300.754 334.457,302.421 336.5,303.5C 342.479,311.479 349.479,318.479 357.5,324.5C 359.062,328.733 362.062,331.067 366.5,331.5C 367.398,332.158 368.398,332.824 369.5,333.5C 369.291,334.086 368.957,334.586 368.5,335C 365.183,335.498 361.85,335.665 358.5,335.5C 355.145,330.145 350.812,325.812 345.5,322.5C 344.478,319.478 342.478,317.478 339.5,316.5C 338.483,314.089 336.816,312.422 334.5,311.5C 333.221,308.888 331.555,306.555 329.5,304.5C 328.962,302.883 328.629,301.216 328.5,299.5C 329.959,299.567 331.292,299.234 332.5,298.5 Z"/></g>
<g><path style="opacity:0.663" fill="#9eb9c4" d="M 362.5,311.5 C 364.167,312.5 365.5,313.833 366.5,315.5C 364.167,315.167 362.833,313.833 362.5,311.5 Z"/></g>
<g><path style="opacity:0.025" fill="#e2eaed" d="M 334.5,311.5 C 336.816,312.422 338.483,314.089 339.5,316.5C 338.078,316.291 336.745,315.791 335.5,315C 335.833,314.667 336.167,314.333 336.5,314C 335.619,313.292 334.953,312.458 334.5,311.5 Z"/></g>
<g><path style="opacity:0.016" fill="#f4f7f8" d="M 355.5,314.5 C 357.144,314.81 358.144,315.81 358.5,317.5C 359.833,318.167 360.833,319.167 361.5,320.5C 359.425,320.384 357.425,319.884 355.5,319C 355.833,318.667 356.167,318.333 356.5,318C 353.294,317.073 352.961,315.907 355.5,314.5 Z"/></g>
<g><path style="opacity:0.596" fill="#bdced9" d="M 339.5,316.5 C 342.478,317.478 344.478,319.478 345.5,322.5C 344.883,322.611 344.383,322.944 344,323.5C 343.777,321.119 342.61,319.453 340.5,318.5C 340.167,317.833 339.833,317.167 339.5,316.5 Z"/></g>
<g><path style="opacity:1" fill="#224c68" d="M 342.5,291.5 C 343.5,291.833 344.167,292.5 344.5,293.5C 344.833,295.833 346.167,297.167 348.5,297.5C 349.5,297.833 350.167,298.5 350.5,299.5C 351.167,302.167 352.833,303.833 355.5,304.5C 355.5,306.5 356.5,307.5 358.5,307.5C 358.833,308.5 359.5,309.167 360.5,309.5C 360.833,310.5 361.5,311.167 362.5,311.5C 362.833,313.833 364.167,315.167 366.5,315.5C 367.5,315.833 368.167,316.5 368.5,317.5C 368.833,318.5 369.5,319.167 370.5,319.5C 371.08,321.749 372.413,323.415 374.5,324.5C 375.833,326.833 375.833,329.167 374.5,331.5C 373.599,332.29 372.932,333.29 372.5,334.5C 371.5,334.833 370.833,335.5 370.5,336.5C 369.508,336.328 368.842,336.662 368.5,337.5C 366.5,337.5 364.5,337.5 362.5,337.5C 361.833,337.5 361.167,337.5 360.5,337.5C 359.833,336.833 359.167,336.167 358.5,335.5C 361.85,335.665 365.183,335.498 368.5,335C 368.957,334.586 369.291,334.086 369.5,333.5C 368.398,332.824 367.398,332.158 366.5,331.5C 368.597,330.121 368.93,328.455 367.5,326.5C 367.167,325.5 366.5,324.833 365.5,324.5C 365.167,323.5 364.5,322.833 363.5,322.5C 363.167,321.5 362.5,320.833 361.5,320.5C 360.833,319.167 359.833,318.167 358.5,317.5C 358.144,315.81 357.144,314.81 355.5,314.5C 355.167,313.5 354.5,312.833 353.5,312.5C 352.833,311.167 351.833,310.167 350.5,309.5C 349.167,307.5 347.5,305.833 345.5,304.5C 345.167,303.5 344.5,302.833 343.5,302.5C 342.833,301.167 341.833,300.167 340.5,299.5C 339.89,298.609 339.557,297.609 339.5,296.5C 340.5,296.5 341.5,296.5 342.5,296.5C 342.5,294.833 342.5,293.167 342.5,291.5 Z"/></g>
<g><path style="opacity:0.037" fill="#fbfffe" d="M 368.5,317.5 C 369.833,317.5 370.5,318.167 370.5,319.5C 369.5,319.167 368.833,318.5 368.5,317.5 Z"/></g>
<g><path style="opacity:0.012" fill="#fefffe" d="M 340.5,318.5 C 339.833,319.167 339.833,319.167 340.5,318.5 Z"/></g>
<g><path style="opacity:0.663" fill="#aec1cd" d="M 370.5,319.5 C 372.587,320.585 373.92,322.251 374.5,324.5C 372.413,323.415 371.08,321.749 370.5,319.5 Z"/></g>
<g><path style="opacity:0.011" fill="#fafffe" d="M 361.5,320.5 C 362.5,320.833 363.167,321.5 363.5,322.5C 364.5,322.833 365.167,323.5 365.5,324.5C 363.173,324.753 361.173,324.086 359.5,322.5C 360.243,321.818 360.909,321.151 361.5,320.5 Z"/></g>
<g><path style="opacity:0.612" fill="#b8cad3" d="M 345.5,322.5 C 350.812,325.812 355.145,330.145 358.5,335.5C 356.433,336.593 355.766,336.093 356.5,334C 355.627,332.955 354.627,332.122 353.5,331.5C 350.833,328.5 348.167,325.5 345.5,322.5 Z"/></g>
<g><path style="opacity:0.373" fill="#ccdfe5" d="M 357.5,324.5 C 359.797,326.294 361.963,328.294 364,330.5C 364.315,328.414 364.815,326.414 365.5,324.5C 366.5,324.833 367.167,325.5 367.5,326.5C 368.93,328.455 368.597,330.121 366.5,331.5C 362.062,331.067 359.062,328.733 357.5,324.5 Z"/></g>
<g><path style="opacity:0.004" fill="#fefffe" d="M 353.5,331.5 C 352.833,332.167 352.833,332.167 353.5,331.5 Z"/></g>
<g><path style="opacity:0.027" fill="#e4f0f2" d="M 374.5,331.5 C 374.715,333.179 374.048,334.179 372.5,334.5C 372.932,333.29 373.599,332.29 374.5,331.5 Z"/></g>
<g><path style="opacity:0.012" fill="#e6eff2" d="M 372.5,334.5 C 373.815,335.895 373.481,336.895 371.5,337.5C 371.5,336.833 371.167,336.5 370.5,336.5C 370.833,335.5 371.5,334.833 372.5,334.5 Z"/></g>
<g><path style="opacity:0.02" fill="#eef4f9" d="M 370.5,336.5 C 371.167,336.5 371.5,336.833 371.5,337.5C 371.134,338.695 370.301,339.361 369,339.5C 366.654,339.01 364.487,338.343 362.5,337.5C 364.5,337.5 366.5,337.5 368.5,337.5C 368.842,336.662 369.508,336.328 370.5,336.5 Z"/></g>
<g><path style="opacity:0.008" fill="#fefffe" d="M 360.5,337.5 C 359.833,338.167 359.833,338.167 360.5,337.5 Z"/></g>
<g><path style="opacity:0.004" fill="#fefffe" d="M 197.5,420.5 C 198.833,421.167 198.833,421.167 197.5,420.5 Z"/></g>
<g><path style="opacity:0.019" fill="#f4f8f9" d="M 203.5,425.5 C 201.95,424.559 200.284,423.893 198.5,423.5C 198.5,423.167 198.5,422.833 198.5,422.5C 201.702,419.941 203.369,420.941 203.5,425.5 Z"/></g>
<g><path style="opacity:0.014" fill="#f0f5f7" d="M 287.5,424.5 C 287.5,423.833 287.167,423.5 286.5,423.5C 285.188,425.743 284.522,428.41 284.5,431.5C 284.298,435.393 284.965,439.06 286.5,442.5C 286.5,442.833 286.5,443.167 286.5,443.5C 284.058,443.881 283.391,443.214 284.5,441.5C 283.714,436.219 283.214,430.885 283,425.5C 283.094,429.633 282.26,433.299 280.5,436.5C 280.5,435.833 280.167,435.5 279.5,435.5C 279.5,434.833 279.167,434.5 278.5,434.5C 278.167,433.167 277.833,433.167 277.5,434.5C 276.508,434.672 275.842,434.338 275.5,433.5C 276.167,433.5 276.5,433.167 276.5,432.5C 276.167,432.5 275.833,432.5 275.5,432.5C 274.5,431.167 273.5,431.167 272.5,432.5C 270.302,432.88 268.635,432.213 267.5,430.5C 266.167,429.5 266.167,428.5 267.5,427.5C 268.312,426.007 269.645,425.34 271.5,425.5C 273.557,425.436 275.223,426.102 276.5,427.5C 277.497,427.53 278.164,427.03 278.5,426C 277.944,424.989 277.278,424.156 276.5,423.5C 275.508,423.672 274.842,423.338 274.5,422.5C 277.669,419.888 280.836,419.888 284,422.5C 286.55,421.02 288.383,421.687 289.5,424.5C 289.03,425.463 288.363,425.463 287.5,424.5 Z M 276.5,432.5 C 277.09,431.234 277.59,429.901 278,428.5C 278.833,430 280,431.167 281.5,432C 279.866,432.494 278.199,432.66 276.5,432.5 Z"/></g>
<g><path style="opacity:0.007" fill="#e4eef2" d="M 311.5,423.5 C 311.167,423.5 310.833,423.5 310.5,423.5C 308.539,430.087 307.872,437.087 308.5,444.5C 308.5,444.833 308.5,445.167 308.5,445.5C 307.833,437.99 307.167,430.323 306.5,422.5C 306.436,428.888 306.436,435.555 306.5,442.5C 303.794,442.688 301.461,443.688 299.5,445.5C 299.5,444.833 299.167,444.5 298.5,444.5C 299.864,442.809 301.197,441.142 302.5,439.5C 302.828,434.125 302.495,428.792 301.5,423.5C 300.833,428.317 300.166,432.983 299.5,437.5C 299.158,436.662 298.492,436.328 297.5,436.5C 295.828,432.735 296.161,429.235 298.5,426C 297.14,424.062 297.473,422.396 299.5,421C 302.468,420.83 305.301,420.664 308,420.5C 309,423.167 310,423.167 311,420.5C 312.728,421.352 312.895,422.352 311.5,423.5 Z"/></g>
<g><path style="opacity:0.004" fill="#fefffe" d="M 322.5,421.5 C 323.251,420.427 324.251,420.26 325.5,421C 324.552,421.483 323.552,421.649 322.5,421.5 Z"/></g>
<g><path style="opacity:0.004" fill="#fefffe" d="M 326.5,421.5 C 327.251,420.427 328.251,420.26 329.5,421C 328.552,421.483 327.552,421.649 326.5,421.5 Z"/></g>
<g><path style="opacity:0.014" fill="#f2f9fa" d="M 239.5,423.5 C 238.5,423.833 237.833,424.5 237.5,425.5C 236.29,425.068 235.29,424.401 234.5,423.5C 235.834,421.539 237.5,421.539 239.5,423.5 Z"/></g>
<g><path style="opacity:0.023" fill="#f0f5f8" d="M 189.5,422.5 C 189.5,423.167 189.833,423.5 190.5,423.5C 189.833,424.167 189.167,424.833 188.5,425.5C 188.167,425.5 187.833,425.5 187.5,425.5C 186.086,423.402 186.752,422.402 189.5,422.5 Z"/></g>
<g><path style="opacity:0.635" fill="#a1afb9" d="M 189.5,422.5 C 192.266,421.729 195.266,421.729 198.5,422.5C 198.5,422.833 198.5,423.167 198.5,423.5C 195.833,423.5 193.167,423.5 190.5,423.5C 189.833,423.5 189.5,423.167 189.5,422.5 Z"/></g>
<g><path style="opacity:0.004" fill="#fefffe" d="M 240.5,422.5 C 241.833,423.167 241.833,423.167 240.5,422.5 Z"/></g>
<g><path style="opacity:0.012" fill="#fcfdfd" d="M 243.5,422.5 C 243.5,430.167 243.5,437.833 243.5,445.5C 241.021,446.623 238.688,446.623 236.5,445.5C 237.833,445.5 238.5,444.833 238.5,443.5C 239.117,443.611 239.617,443.944 240,444.5C 240.635,442.382 241.469,440.382 242.5,438.5C 241.452,436.59 241.452,434.756 242.5,433C 240.21,432.21 239.877,430.876 241.5,429C 241.164,427.97 240.497,427.47 239.5,427.5C 239.5,426.167 239.5,424.833 239.5,423.5C 239.833,423.5 240.167,423.5 240.5,423.5C 240.56,424.043 240.893,424.376 241.5,424.5C 242.182,423.757 242.849,423.091 243.5,422.5 Z"/></g>
<g><path style="opacity:0.004" fill="#fefffe" d="M 313.5,422.5 C 315.739,424.001 315.739,425.334 313.5,426.5C 312.374,425.192 312.374,423.858 313.5,422.5 Z"/></g>
<g><path style="opacity:0.373" fill="#9cb1bc" d="M 322.5,422.5 C 328.5,422.5 334.5,422.5 340.5,422.5C 340.737,423.791 340.404,424.791 339.5,425.5C 337.257,424.188 334.59,423.522 331.5,423.5C 328.41,423.522 325.743,424.188 323.5,425.5C 323.167,425.5 322.833,425.5 322.5,425.5C 322.5,424.5 322.5,423.5 322.5,422.5 Z"/></g>
<g><path style="opacity:1" fill="#193d4f" d="M 259.5,423.5 C 255.627,425.43 251.294,426.097 246.5,425.5C 245.527,427.948 245.194,430.615 245.5,433.5C 249.514,433.334 253.514,433.501 257.5,434C 253.644,434.177 249.977,434.677 246.5,435.5C 246.5,436.833 246.5,438.167 246.5,439.5C 246.5,439.833 246.5,440.167 246.5,440.5C 246.5,441.167 246.5,441.833 246.5,442.5C 250.634,443.485 254.968,443.818 259.5,443.5C 259.5,443.833 259.5,444.167 259.5,444.5C 254.5,444.5 249.5,444.5 244.5,444.5C 244.5,437.5 244.5,430.5 244.5,423.5C 249.5,423.5 254.5,423.5 259.5,423.5 Z"/></g>
<g><path style="opacity:0.004" fill="#fefffe" d="M 173.5,424.5 C 173.5,425.5 173.5,426.5 173.5,427.5C 171.891,427.906 170.557,427.906 169.5,427.5C 170.588,426.066 171.922,425.066 173.5,424.5 Z"/></g>
<g><path style="opacity:0.009" fill="#f2f7f9" d="M 203.5,442.5 C 204.263,440.632 205.263,438.965 206.5,437.5C 206.5,435.167 206.5,432.833 206.5,430.5C 207.644,429.151 207.644,428.817 206.5,429.5C 205.026,428.564 204.026,427.23 203.5,425.5C 205.274,424.119 206.774,424.452 208,426.5C 210.822,432.963 209.822,438.629 205,443.5C 204.617,442.944 204.117,442.611 203.5,442.5 Z"/></g>
<g><path style="opacity:0.137" fill="#ddeffc" d="M 179.5,423.5 C 179.167,423.5 178.833,423.5 178.5,423.5C 178.167,423.5 177.833,423.5 177.5,423.5C 176.673,428.651 176.173,433.984 176,439.5C 175.283,438.956 174.783,438.289 174.5,437.5C 175.65,432.684 175.816,427.684 175,422.5C 174.722,423.416 174.222,424.082 173.5,424.5C 173.5,423.5 173.5,422.5 173.5,421.5C 175.527,421.338 177.527,421.505 179.5,422C 180.738,422.69 180.738,423.19 179.5,423.5 Z"/></g>
<g><path style="opacity:0.008" fill="#fefffe" d="M 181.5,427.5 C 182.5,426.167 183.5,426.167 184.5,427.5C 183.5,427.5 182.5,427.5 181.5,427.5 Z"/></g>
<g><path style="opacity:0.01" fill="#fafcfd" d="M 268.5,422.5 C 264.907,424.737 263.574,428.07 264.5,432.5C 262.799,432.966 261.299,432.966 260,432.5C 259.51,433.793 259.343,435.127 259.5,436.5C 256.183,436.781 253.017,436.781 250,436.5C 249.333,437.5 249.333,438.5 250,439.5C 251.073,438.72 252.24,438.887 253.5,440C 252.167,440.333 250.833,440.667 249.5,441C 251.382,441.198 253.048,441.698 254.5,442.5C 251.833,442.5 249.167,442.5 246.5,442.5C 246.5,441.833 246.5,441.167 246.5,440.5C 247.833,440.167 247.833,439.833 246.5,439.5C 246.5,438.167 246.5,436.833 246.5,435.5C 250.5,435.5 254.5,435.5 258.5,435.5C 258.5,434.5 258.5,433.5 258.5,432.5C 255.167,432.5 251.833,432.5 248.5,432.5C 248.167,429.833 247.833,429.833 247.5,432.5C 246.549,431.081 246.216,429.415 246.5,427.5C 251.833,427.167 251.833,426.833 246.5,426.5C 246.5,426.167 246.5,425.833 246.5,425.5C 251.294,426.097 255.627,425.43 259.5,423.5C 259.5,423.167 259.5,422.833 259.5,422.5C 261.735,422.682 263.735,422.015 265.5,420.5C 266.732,421.145 268.065,421.311 269.5,421C 268.944,421.383 268.611,421.883 268.5,422.5 Z M 261.5,425.5 C 262.693,425.97 263.36,426.97 263.5,428.5C 263.333,429.5 263.167,430.5 263,431.5C 262.047,429.408 260.714,429.075 259,430.5C 257.447,428.306 255.281,427.14 252.5,427C 255.099,426.231 257.599,426.398 260,427.5C 260.717,426.956 261.217,426.289 261.5,425.5 Z"/></g>
<g><path style="opacity:0.009" fill="#f6fbfd" d="M 333.5,426.5 C 333.5,426.167 333.5,425.833 333.5,425.5C 335.5,425.5 337.5,425.5 339.5,425.5C 340.404,424.791 340.737,423.791 340.5,422.5C 339.769,419.969 340.269,419.969 342,422.5C 343.16,426.32 341.993,427.82 338.5,427C 338.833,427.333 339.167,427.667 339.5,428C 336.212,429.358 334.712,431.858 335,435.5C 334.503,432.854 334.336,430.187 334.5,427.5C 338.172,426.955 337.838,426.622 333.5,426.5 Z"/></g>
<g><path style="opacity:0.005" fill="#fefffe" d="M 181.5,427.5 C 181.923,429.781 181.256,431.448 179.5,432.5C 179.5,431.167 179.5,429.833 179.5,428.5C 180.167,428.167 180.833,427.833 181.5,427.5 Z"/></g>
<g><path style="opacity:0.953" fill="#163d4f" d="M 310.5,423.5 C 310.5,430.167 310.5,436.833 310.5,443.5C 314.514,443.334 318.514,443.501 322.5,444C 317.845,444.499 313.179,444.666 308.5,444.5C 307.872,437.087 308.539,430.087 310.5,423.5 Z"/></g>
<g><path style="opacity:0.004" fill="#fefffe" d="M 322.5,428.5 C 323.386,427.224 324.386,427.224 325.5,428.5C 324.767,429.087 323.767,429.087 322.5,428.5 Z"/></g>
<g><path style="opacity:0.004" fill="#fefffe" d="M 326.5,429.5 C 326.897,428.475 327.563,428.308 328.5,429C 327.906,429.464 327.239,429.631 326.5,429.5 Z"/></g>
<g><path style="opacity:0.025" fill="#ccd9de" d="M 166.5,427.5 C 166.833,427.5 167.167,427.5 167.5,427.5C 168.483,428.85 169.816,429.85 171.5,430.5C 171.376,431.107 171.043,431.44 170.5,431.5C 170.167,430.167 169.833,430.167 169.5,431.5C 167.738,430.738 166.738,429.404 166.5,427.5 Z"/></g>
<g><path style="opacity:0.945" fill="#3b5866" d="M 268.5,422.5 C 270.5,422.5 272.5,422.5 274.5,422.5C 274.842,423.338 275.508,423.672 276.5,423.5C 277.278,424.156 277.944,424.989 278.5,426C 278.164,427.03 277.497,427.53 276.5,427.5C 275.223,426.102 273.557,425.436 271.5,425.5C 269.645,425.34 268.312,426.007 267.5,427.5C 266.167,428.5 266.167,429.5 267.5,430.5C 268.635,432.213 270.302,432.88 272.5,432.5C 273.5,432.5 274.5,432.5 275.5,432.5C 275.5,432.833 275.5,433.167 275.5,433.5C 275.842,434.338 276.508,434.672 277.5,434.5C 277.833,434.5 278.167,434.5 278.5,434.5C 279.167,434.5 279.5,434.833 279.5,435.5C 280.167,435.5 280.5,435.833 280.5,436.5C 280.784,438.415 280.451,440.081 279.5,441.5C 278.599,442.29 277.932,443.29 277.5,444.5C 276.5,444.5 275.5,444.5 274.5,444.5C 272.143,444.663 269.81,444.497 267.5,444C 270.036,443.814 272.369,443.314 274.5,442.5C 274.833,442.5 275.167,442.5 275.5,442.5C 277.377,441.341 277.877,439.674 277,437.5C 276.329,436.748 275.496,436.414 274.5,436.5C 272.485,435.076 270.152,434.41 267.5,434.5C 267.027,433.094 266.027,432.427 264.5,432.5C 263.574,428.07 264.907,424.737 268.5,422.5 Z"/></g>
<g><path style="opacity:0.141" fill="#ddeff9" d="M 167.5,427.5 C 167.167,426.167 166.833,426.167 166.5,427.5C 165.599,426.71 164.932,425.71 164.5,424.5C 163.292,423.766 161.959,423.433 160.5,423.5C 160.5,430.5 160.5,437.5 160.5,444.5C 160.5,444.833 160.5,445.167 160.5,445.5C 159.508,438.018 159.175,430.352 159.5,422.5C 162.598,422.587 162.932,422.087 160.5,421C 164.597,420.578 167.264,422.411 168.5,426.5C 168.376,427.107 168.043,427.44 167.5,427.5 Z"/></g>
<g><path style="opacity:0.016" fill="#fefffe" d="M 172.5,433.5 C 172.56,432.957 172.893,432.624 173.5,432.5C 174.773,433.257 174.773,433.923 173.5,434.5C 173.5,433.833 173.167,433.5 172.5,433.5 Z"/></g>
<g><path style="opacity:0.314" fill="#c2d1db" d="M 187.5,425.5 C 187.833,425.5 188.167,425.5 188.5,425.5C 184.606,429.851 183.606,434.851 185.5,440.5C 184.833,440.5 184.5,440.833 184.5,441.5C 183.35,442.85 182.683,442.684 182.5,441C 183.485,437.559 183.485,433.892 182.5,430C 183.756,429.583 184.423,428.75 184.5,427.5C 185.5,426.833 186.5,426.167 187.5,425.5 Z"/></g>
<g><path style="opacity:0.6" fill="#6b8595" d="M 246.5,425.5 C 246.5,425.833 246.5,426.167 246.5,426.5C 246.5,426.833 246.5,427.167 246.5,427.5C 246.216,429.415 246.549,431.081 247.5,432.5C 247.833,432.5 248.167,432.5 248.5,432.5C 251.833,432.5 255.167,432.5 258.5,432.5C 258.5,433.5 258.5,434.5 258.5,435.5C 254.5,435.5 250.5,435.5 246.5,435.5C 249.977,434.677 253.644,434.177 257.5,434C 253.514,433.501 249.514,433.334 245.5,433.5C 245.194,430.615 245.527,427.948 246.5,425.5 Z"/></g>
<g><path style="opacity:0.99" fill="#093448" d="M 177.5,423.5 C 177.833,423.5 178.167,423.5 178.5,423.5C 178.83,430.532 178.497,437.532 177.5,444.5C 176.817,444.137 176.15,443.804 175.5,443.5C 175.586,442.504 175.252,441.671 174.5,441C 175.448,440.517 176.448,440.351 177.5,440.5C 177.5,434.833 177.5,429.167 177.5,423.5 Z"/></g>
<g><path style="opacity:0.392" fill="#adc3ce" d="M 234.5,423.5 C 230.167,423.5 225.833,423.5 221.5,423.5C 220.872,430.913 221.539,437.913 223.5,444.5C 223.158,445.338 222.492,445.672 221.5,445.5C 219.621,445.607 219.288,445.107 220.5,444C 219.584,443.722 218.918,443.222 218.5,442.5C 219.812,440.257 220.478,437.59 220.5,434.5C 220.333,431.833 220.167,429.167 220,426.5C 218.733,425.09 218.733,423.424 220,421.5C 224.375,422.628 229.042,422.628 234,421.5C 234.464,422.094 234.631,422.761 234.5,423.5 Z"/></g>
<g><path style="opacity:0.008" fill="#e6eff3" d="M 238.5,432.5 C 238.279,435.067 237.612,437.401 236.5,439.5C 236.5,437.5 235.5,436.5 233.5,436.5C 235.142,435.197 236.809,433.864 238.5,432.5 Z"/></g>
<g><path style="opacity:0.31" fill="#b4ccd4" d="M 264.5,432.5 C 266.027,432.427 267.027,433.094 267.5,434.5C 265.973,434.573 264.973,433.906 264.5,432.5 Z"/></g>
<g><path style="opacity:0.971" fill="#214456" d="M 164.5,424.5 C 164.932,425.71 165.599,426.71 166.5,427.5C 166.738,429.404 167.738,430.738 169.5,431.5C 170.08,433.749 171.413,435.415 173.5,436.5C 173.5,437.5 173.5,438.5 173.5,439.5C 172.833,439.167 172.167,438.833 171.5,438.5C 171.167,437.5 170.5,436.833 169.5,436.5C 169.5,435.167 168.833,434.5 167.5,434.5C 167.167,433.833 166.833,433.167 166.5,432.5C 165.969,430.456 164.802,428.789 163,427.5C 163.126,433.588 162.292,439.255 160.5,444.5C 160.5,437.5 160.5,430.5 160.5,423.5C 161.959,423.433 163.292,423.766 164.5,424.5 Z"/></g>
<g><path style="opacity:0.01" fill="#f1f5f6" d="M 167.5,434.5 C 168.833,434.5 169.5,435.167 169.5,436.5C 168.167,436.5 166.833,436.5 165.5,436.5C 165.5,435.167 166.167,434.5 167.5,434.5 Z"/></g>
<g><path style="opacity:0.678" fill="#a4bccd" d="M 267.5,434.5 C 270.152,434.41 272.485,435.076 274.5,436.5C 271.848,436.59 269.515,435.924 267.5,434.5 Z"/></g>
<g><path style="opacity:0.38" fill="#9ab4bf" d="M 169.5,431.5 C 169.833,431.5 170.167,431.5 170.5,431.5C 170.833,432.5 171.5,433.167 172.5,433.5C 173.167,433.5 173.5,433.833 173.5,434.5C 173.5,435.167 173.5,435.833 173.5,436.5C 171.413,435.415 170.08,433.749 169.5,431.5 Z"/></g>
<g><path style="opacity:1" fill="#1b3c4d" d="M 286.5,423.5 C 286.653,430.057 286.653,436.39 286.5,442.5C 284.965,439.06 284.298,435.393 284.5,431.5C 284.522,428.41 285.188,425.743 286.5,423.5 Z"/></g>
<g><path style="opacity:0.012" fill="#fefffe" d="M 288.5,435.5 C 289.525,435.897 289.692,436.563 289,437.5C 288.536,436.906 288.369,436.239 288.5,435.5 Z"/></g>
<g><path style="opacity:0.416" fill="#a3bac6" d="M 166.5,432.5 C 165.542,432.047 164.708,431.381 164,430.5C 163.186,435.02 163.353,439.354 164.5,443.5C 164.163,446.336 162.829,447.002 160.5,445.5C 160.5,445.167 160.5,444.833 160.5,444.5C 162.292,439.255 163.126,433.588 163,427.5C 164.802,428.789 165.969,430.456 166.5,432.5 Z"/></g>
<g><path style="opacity:0.004" fill="#fefffe" d="M 165.5,436.5 C 166.305,438.961 165.972,441.294 164.5,443.5C 164.198,440.941 164.532,438.607 165.5,436.5 Z"/></g>
<g><path style="opacity:0.808" fill="#406477" d="M 177.5,423.5 C 177.5,429.167 177.5,434.833 177.5,440.5C 176.448,440.351 175.448,440.517 174.5,441C 175.252,441.671 175.586,442.504 175.5,443.5C 174.5,443.167 173.833,442.5 173.5,441.5C 173.5,440.833 173.5,440.167 173.5,439.5C 173.5,438.5 173.5,437.5 173.5,436.5C 174.167,436.5 174.5,436.833 174.5,437.5C 174.783,438.289 175.283,438.956 176,439.5C 176.173,433.984 176.673,428.651 177.5,423.5 Z"/></g>
<g><path style="opacity:1" fill="#355365" d="M 190.5,423.5 C 193.167,423.5 195.833,423.5 198.5,423.5C 200.284,423.893 201.95,424.559 203.5,425.5C 204.026,427.23 205.026,428.564 206.5,429.5C 206.5,429.833 206.5,430.167 206.5,430.5C 206.5,432.833 206.5,435.167 206.5,437.5C 205.263,438.965 204.263,440.632 203.5,442.5C 203.5,443.167 203.167,443.5 202.5,443.5C 200.973,443.427 199.973,444.094 199.5,445.5C 195.936,446.903 192.602,446.569 189.5,444.5C 188.5,442.833 187.167,441.5 185.5,440.5C 183.606,434.851 184.606,429.851 188.5,425.5C 189.167,424.833 189.833,424.167 190.5,423.5 Z M 197.5,427.5 C 198.403,429.62 199.737,429.954 201.5,428.5C 201.5,429.167 201.833,429.5 202.5,429.5C 203.833,432.5 203.833,435.5 202.5,438.5C 200.804,436.871 199.804,437.204 199.5,439.5C 196.455,439.492 193.455,439.159 190.5,438.5C 190.179,436.952 189.179,436.285 187.5,436.5C 187.457,432.107 187.957,431.774 189,435.5C 190.758,431.613 193.591,428.946 197.5,427.5 Z M 197.5,442.5 C 195.345,442.628 193.345,442.128 191.5,441C 193.775,440.595 195.775,441.095 197.5,442.5 Z"/></g>
<g><path style="opacity:0.016" fill="#f6f9fa" d="M 187.5,436.5 C 189.179,436.285 190.179,436.952 190.5,438.5C 190.167,438.5 189.833,438.5 189.5,438.5C 189.167,437.167 188.833,437.167 188.5,438.5C 187.662,438.158 187.328,437.492 187.5,436.5 Z"/></g>
<g><path style="opacity:0.608" fill="#9eb0bf" d="M 202.5,429.5 C 204.862,432.771 204.862,436.104 202.5,439.5C 202.5,439.167 202.5,438.833 202.5,438.5C 203.833,435.5 203.833,432.5 202.5,429.5 Z"/></g>
<g><path style="opacity:0.019" fill="#f2f9fc" d="M 199.5,426.5 C 200.5,426.833 201.167,427.5 201.5,428.5C 199.737,429.954 198.403,429.62 197.5,427.5C 198.492,427.672 199.158,427.338 199.5,426.5 Z"/></g>
<g><path style="opacity:0.011" fill="#e9f1f4" d="M 199.5,426.5 C 198.508,426.328 197.842,426.662 197.5,427.5C 193.591,428.946 190.758,431.613 189,435.5C 187.957,431.774 187.457,432.107 187.5,436.5C 186.853,435.726 186.52,434.726 186.5,433.5C 186.34,431.645 187.007,430.312 188.5,429.5C 189.167,428.167 190.167,427.167 191.5,426.5C 194.167,425.167 196.833,425.167 199.5,426.5 Z"/></g>
<g><path style="opacity:0.011" fill="#f9fbfc" d="M 275.5,441.5 C 275.5,441.833 275.5,442.167 275.5,442.5C 275.167,442.5 274.833,442.5 274.5,442.5C 273.833,442.5 273.167,442.5 272.5,442.5C 271.833,441.167 271.167,441.167 270.5,442.5C 269.209,442.737 268.209,442.404 267.5,441.5C 268.833,441.167 268.833,440.833 267.5,440.5C 267.167,439.167 266.833,439.167 266.5,440.5C 265.5,440.5 264.5,440.5 263.5,440.5C 263.918,439.778 264.584,439.278 265.5,439C 264.833,438.667 264.167,438.333 263.5,438C 265.433,437.749 267.266,437.249 269,436.5C 269.576,439.124 270.91,439.791 273,438.5C 273.377,439.942 274.21,440.942 275.5,441.5 Z"/></g>
<g><path style="opacity:0.012" fill="#f7f9fb" d="M 297.5,436.5 C 297.842,437.338 298.508,437.672 299.5,437.5C 299.737,438.791 299.404,439.791 298.5,440.5C 298.167,441.5 297.5,442.167 296.5,442.5C 296.167,442.5 295.833,442.5 295.5,442.5C 294.432,441.566 293.099,441.232 291.5,441.5C 291.158,440.662 290.492,440.328 289.5,440.5C 289.461,439.244 289.961,438.244 291,437.5C 292.466,439.325 294.299,439.825 296.5,439C 295.434,437.841 295.767,437.008 297.5,436.5 Z"/></g>
<g><path style="opacity:0.352" fill="#9fb6c5" d="M 333.5,425.5 C 333.5,425.833 333.5,426.167 333.5,426.5C 333.5,432.833 333.5,439.167 333.5,445.5C 333.167,445.5 332.833,445.5 332.5,445.5C 331.833,445.5 331.167,445.5 330.5,445.5C 330.5,445.167 330.5,444.833 330.5,444.5C 332.149,438.399 333.149,432.065 333.5,425.5 Z"/></g>
<g><path style="opacity:0.012" fill="#e5f2f9" d="M 169.5,436.5 C 170.5,436.833 171.167,437.5 171.5,438.5C 170.167,438.5 169.5,437.833 169.5,436.5 Z"/></g>
<g><path style="opacity:0.013" fill="#ebf2f4" d="M 202.5,438.5 C 202.5,438.833 202.5,439.167 202.5,439.5C 201.778,440.551 200.778,441.218 199.5,441.5C 199.5,441.167 199.5,440.833 199.5,440.5C 200.833,440.167 200.833,439.833 199.5,439.5C 199.804,437.204 200.804,436.871 202.5,438.5 Z"/></g>
<g><path style="opacity:0.91" fill="#305163" d="M 234.5,423.5 C 235.29,424.401 236.29,425.068 237.5,425.5C 238.167,426.167 238.833,426.833 239.5,427.5C 239.784,429.415 239.451,431.081 238.5,432.5C 236.809,433.864 235.142,435.197 233.5,436.5C 234.167,437.5 234.833,438.5 235.5,439.5C 235.427,441.027 236.094,442.027 237.5,442.5C 238.167,442.5 238.5,442.833 238.5,443.5C 238.5,444.833 237.833,445.5 236.5,445.5C 235.5,444.833 234.5,444.167 233.5,443.5C 233.5,443.167 233.5,442.833 233.5,442.5C 233.5,441.833 233.167,441.5 232.5,441.5C 232.167,440.833 231.833,440.167 231.5,439.5C 229.614,436.901 226.948,435.901 223.5,436.5C 223.5,439.167 223.5,441.833 223.5,444.5C 221.539,437.913 220.872,430.913 221.5,423.5C 225.833,423.5 230.167,423.5 234.5,423.5 Z M 224.5,428.5 C 226.042,429.301 227.708,429.634 229.5,429.5C 229.5,430.833 229.5,432.167 229.5,433.5C 228.167,433.5 226.833,433.5 225.5,433.5C 225.371,431.784 225.038,430.117 224.5,428.5 Z M 233.5,428.5 C 233.304,430.646 232.304,430.812 230.5,429C 231.448,428.517 232.448,428.351 233.5,428.5 Z M 231.5,439.5 C 231.833,440.167 232.167,440.833 232.5,441.5C 230.322,440.796 228.322,440.463 226.5,440.5C 227.641,439.575 227.641,438.741 226.5,438C 227,437.833 227.5,437.667 228,437.5C 229.077,438.429 230.244,439.096 231.5,439.5 Z"/></g>
<g><path style="opacity:0.012" fill="#fafcfd" d="M 224.5,428.5 C 224.5,428.167 224.5,427.833 224.5,427.5C 227.5,427.5 230.5,427.5 233.5,427.5C 233.5,427.833 233.5,428.167 233.5,428.5C 234.167,428.5 234.5,428.167 234.5,427.5C 235.833,429.167 235.833,430.833 234.5,432.5C 234.5,433.167 234.167,433.5 233.5,433.5C 233.167,433.5 232.833,433.5 232.5,433.5C 232.167,432.167 231.833,432.167 231.5,433.5C 230.833,433.5 230.167,433.5 229.5,433.5C 229.5,432.167 229.5,430.833 229.5,429.5C 227.708,429.634 226.042,429.301 224.5,428.5 Z M 233.5,428.5 C 232.448,428.351 231.448,428.517 230.5,429C 232.304,430.812 233.304,430.646 233.5,428.5 Z"/></g>
<g><path style="opacity:0.153" fill="#cee3ed" d="M 232.5,426.5 C 229.615,426.194 226.948,426.527 224.5,427.5C 224.5,427.833 224.5,428.167 224.5,428.5C 225.038,430.117 225.371,431.784 225.5,433.5C 226.833,433.5 228.167,433.5 229.5,433.5C 230.167,433.5 230.833,433.5 231.5,433.5C 231.833,433.5 232.167,433.5 232.5,433.5C 232.833,433.5 233.167,433.5 233.5,433.5C 230.375,434.479 227.042,434.813 223.5,434.5C 223.5,431.5 223.5,428.5 223.5,425.5C 226.713,425.19 229.713,425.523 232.5,426.5 Z"/></g>
<g><path style="opacity:0.007" fill="#f1f6fa" d="M 231.5,439.5 C 230.244,439.096 229.077,438.429 228,437.5C 227.5,437.667 227,437.833 226.5,438C 227.641,438.741 227.641,439.575 226.5,440.5C 228.322,440.463 230.322,440.796 232.5,441.5C 233.167,441.5 233.5,441.833 233.5,442.5C 232.833,442.5 232.5,442.833 232.5,443.5C 230.864,444.246 229.197,443.912 227.5,442.5C 226.901,445.067 225.401,446.734 223,447.5C 221.97,447.164 221.47,446.497 221.5,445.5C 222.492,445.672 223.158,445.338 223.5,444.5C 223.5,441.833 223.5,439.167 223.5,436.5C 226.948,435.901 229.614,436.901 231.5,439.5 Z"/></g>
<g><path style="opacity:0.009" fill="#e2e9ef" d="M 190.5,438.5 C 193.455,439.159 196.455,439.492 199.5,439.5C 199.5,439.833 199.5,440.167 199.5,440.5C 198.167,440.833 198.167,441.167 199.5,441.5C 199.158,442.338 198.492,442.672 197.5,442.5C 194.382,444.007 191.715,443.34 189.5,440.5C 190.338,440.158 190.672,439.492 190.5,438.5 Z M 197.5,442.5 C 195.775,441.095 193.775,440.595 191.5,441C 193.345,442.128 195.345,442.628 197.5,442.5 Z"/></g>
<g><path style="opacity:0.427" fill="#88a9b8" d="M 274.5,436.5 C 275.496,436.414 276.329,436.748 277,437.5C 277.877,439.674 277.377,441.341 275.5,442.5C 275.5,442.167 275.5,441.833 275.5,441.5C 276.734,439.602 276.401,437.935 274.5,436.5 Z"/></g>
<g><path style="opacity:0.009" fill="#fefffe" d="M 334.5,438.5 C 335.613,439.946 335.78,441.613 335,443.5C 334.506,441.866 334.34,440.199 334.5,438.5 Z"/></g>
<g><path style="opacity:0.012" fill="#cdd9de" d="M 171.5,438.5 C 172.167,438.833 172.833,439.167 173.5,439.5C 173.5,440.167 173.5,440.833 173.5,441.5C 172.094,441.027 171.427,440.027 171.5,438.5 Z"/></g>
<g><path style="opacity:0.008" fill="#f8fafb" d="M 263.5,440.5 C 263.557,441.609 263.89,442.609 264.5,443.5C 263.222,443.782 262.222,444.449 261.5,445.5C 261.737,444.209 261.404,443.209 260.5,442.5C 260.5,441.833 260.167,441.5 259.5,441.5C 260.211,439.158 261.544,438.825 263.5,440.5 Z"/></g>
<g><path style="opacity:0.004" fill="#fefffe" d="M 313.5,440.5 C 312.833,439.167 312.833,439.167 313.5,440.5 Z"/></g>
<g><path style="opacity:0.643" fill="#9ab9c7" d="M 235.5,439.5 C 235.833,439.5 236.167,439.5 236.5,439.5C 237.11,440.391 237.443,441.391 237.5,442.5C 236.094,442.027 235.427,441.027 235.5,439.5 Z"/></g>
<g><path style="opacity:0.009" fill="#fefffe" d="M 313.5,440.5 C 317.179,441.507 320.512,441.507 323.5,440.5C 324.914,441.465 325.747,442.465 326,443.5C 327.303,443.022 328.469,442.355 329.5,441.5C 329.5,442.167 329.5,442.833 329.5,443.5C 328.778,443.918 328.278,444.584 328,445.5C 326.15,445.683 324.317,445.683 322.5,445.5C 323.404,444.791 323.737,443.791 323.5,442.5C 319.298,442.817 315.298,442.483 311.5,441.5C 312.492,441.672 313.158,441.338 313.5,440.5 Z"/></g>
<g><path style="opacity:0.008" fill="#dce9ec" d="M 185.5,440.5 C 187.167,441.5 188.5,442.833 189.5,444.5C 188.883,444.611 188.383,444.944 188,445.5C 187.31,443.65 186.144,442.316 184.5,441.5C 185.167,441.5 185.5,441.167 185.5,440.5 Z"/></g>
<g><path style="opacity:0.004" fill="#fefffe" d="M 218.5,442.5 C 217.833,441.167 217.833,441.167 218.5,442.5 Z"/></g>
<g><path style="opacity:0.961" fill="#1c3e51" d="M 339.5,425.5 C 337.5,425.5 335.5,425.5 333.5,425.5C 333.149,432.065 332.149,438.399 330.5,444.5C 330.5,438.167 330.5,431.833 330.5,425.5C 328.167,425.5 325.833,425.5 323.5,425.5C 325.743,424.188 328.41,423.522 331.5,423.5C 334.59,423.522 337.257,424.188 339.5,425.5 Z"/></g>
<g><path style="opacity:0.686" fill="#788c97" d="M 259.5,441.5 C 259.5,441.833 259.5,442.167 259.5,442.5C 259.5,442.833 259.5,443.167 259.5,443.5C 254.968,443.818 250.634,443.485 246.5,442.5C 249.167,442.5 251.833,442.5 254.5,442.5C 256.216,442.371 257.883,442.038 259.5,441.5 Z"/></g>
<g><path style="opacity:0.988" fill="#557180" d="M 263.5,440.5 C 264.5,440.5 265.5,440.5 266.5,440.5C 266.833,440.5 267.167,440.5 267.5,440.5C 267.5,440.833 267.5,441.167 267.5,441.5C 268.209,442.404 269.209,442.737 270.5,442.5C 271.167,442.5 271.833,442.5 272.5,442.5C 273.167,442.5 273.833,442.5 274.5,442.5C 272.369,443.314 270.036,443.814 267.5,444C 269.81,444.497 272.143,444.663 274.5,444.5C 272.735,445.461 270.735,445.795 268.5,445.5C 266.847,445.34 265.514,444.674 264.5,443.5C 263.89,442.609 263.557,441.609 263.5,440.5 Z"/></g>
<g><path style="opacity:0.439" fill="#849fae" d="M 286.5,423.5 C 287.167,423.5 287.5,423.833 287.5,424.5C 287.334,429.179 287.501,433.845 288,438.5C 288.278,439.416 288.778,440.082 289.5,440.5C 289.842,441.338 290.508,441.672 291.5,441.5C 292.568,442.434 293.901,442.768 295.5,442.5C 295.833,442.5 296.167,442.5 296.5,442.5C 294.306,443.766 291.972,443.766 289.5,442.5C 288.702,442.957 288.369,443.624 288.5,444.5C 287.508,444.672 286.842,444.338 286.5,443.5C 286.5,443.167 286.5,442.833 286.5,442.5C 286.653,436.39 286.653,430.057 286.5,423.5 Z"/></g>
<g><path style="opacity:0.996" fill="#345164" d="M 302.5,439.5 C 301.197,441.142 299.864,442.809 298.5,444.5C 297.833,444.5 297.5,444.833 297.5,445.5C 294.267,446.85 291.267,446.517 288.5,444.5C 288.369,443.624 288.702,442.957 289.5,442.5C 291.972,443.766 294.306,443.766 296.5,442.5C 297.5,442.167 298.167,441.5 298.5,440.5C 299.404,439.791 299.737,438.791 299.5,437.5C 300.166,432.983 300.833,428.317 301.5,423.5C 302.495,428.792 302.828,434.125 302.5,439.5 Z"/></g>
<g><path style="opacity:0.247" fill="#d3e5ee" d="M 322.5,421.5 C 322.5,421.833 322.5,422.167 322.5,422.5C 321.167,423.5 321.167,424.5 322.5,425.5C 322.833,425.5 323.167,425.5 323.5,425.5C 325.833,425.5 328.167,425.5 330.5,425.5C 330.5,431.833 330.5,438.167 330.5,444.5C 330.5,444.833 330.5,445.167 330.5,445.5C 331.167,446.833 331.833,446.833 332.5,445.5C 332.833,445.5 333.167,445.5 333.5,445.5C 335.355,444.206 335.689,444.539 334.5,446.5C 332.929,447.309 331.262,447.643 329.5,447.5C 329.5,446.167 329.5,444.833 329.5,443.5C 329.5,442.833 329.5,442.167 329.5,441.5C 329.5,436.5 329.5,431.5 329.5,426.5C 326.5,426.5 323.5,426.5 320.5,426.5C 320.077,424.219 320.744,422.552 322.5,421.5 Z"/></g>
<g><path style="opacity:0.004" fill="#fefffe" d="M 181.5,443.5 C 182.833,444.167 182.833,444.167 181.5,443.5 Z"/></g>
<g><path style="opacity:0.014" fill="#fefffe" d="M 232.5,443.5 C 232.833,443.5 233.167,443.5 233.5,443.5C 233.167,446.167 232.833,446.167 232.5,443.5 Z"/></g>
<g><path style="opacity:0.012" fill="#e4f2f6" d="M 279.5,441.5 C 279.715,443.179 279.048,444.179 277.5,444.5C 277.932,443.29 278.599,442.29 279.5,441.5 Z"/></g>
<g><path style="opacity:0.004" fill="#fefffe" d="M 305.5,443.5 C 306.833,444.167 306.833,444.167 305.5,443.5 Z"/></g>
<g><path style="opacity:0.675" fill="#a6bbc3" d="M 178.5,423.5 C 178.833,423.5 179.167,423.5 179.5,423.5C 180.562,425.099 180.562,426.766 179.5,428.5C 179.5,429.833 179.5,431.167 179.5,432.5C 179.141,434.766 179.808,436.599 181.5,438C 180.484,438.519 179.818,439.353 179.5,440.5C 180.156,442.453 180.489,444.453 180.5,446.5C 177.966,446.741 176.3,445.741 175.5,443.5C 176.15,443.804 176.817,444.137 177.5,444.5C 178.497,437.532 178.83,430.532 178.5,423.5 Z"/></g>
<g><path style="opacity:0.007" fill="#e9f6f8" d="M 202.5,443.5 C 202.368,446.007 201.368,446.674 199.5,445.5C 199.973,444.094 200.973,443.427 202.5,443.5 Z"/></g>
<g><path style="opacity:0.616" fill="#70899b" d="M 243.5,422.5 C 248.833,422.5 254.167,422.5 259.5,422.5C 259.5,422.833 259.5,423.167 259.5,423.5C 254.5,423.5 249.5,423.5 244.5,423.5C 244.5,430.5 244.5,437.5 244.5,444.5C 249.5,444.5 254.5,444.5 259.5,444.5C 259.5,445.167 259.167,445.5 258.5,445.5C 253.5,445.5 248.5,445.5 243.5,445.5C 243.5,437.833 243.5,430.167 243.5,422.5 Z"/></g>
<g><path style="opacity:0.606" fill="#7e97a5" d="M 310.5,423.5 C 310.833,423.5 311.167,423.5 311.5,423.5C 311.5,429.5 311.5,435.5 311.5,441.5C 315.298,442.483 319.298,442.817 323.5,442.5C 323.737,443.791 323.404,444.791 322.5,445.5C 317.908,446.241 313.242,446.241 308.5,445.5C 308.5,445.167 308.5,444.833 308.5,444.5C 313.179,444.666 317.845,444.499 322.5,444C 318.514,443.501 314.514,443.334 310.5,443.5C 310.5,436.833 310.5,430.167 310.5,423.5 Z"/></g>
<g><path style="opacity:0.005" fill="#f0f2f4" d="M 259.5,442.5 C 259.833,442.5 260.167,442.5 260.5,442.5C 260.263,443.791 260.596,444.791 261.5,445.5C 259.957,447.557 258.957,447.557 258.5,445.5C 259.167,445.5 259.5,445.167 259.5,444.5C 259.5,444.167 259.5,443.833 259.5,443.5C 259.5,443.167 259.5,442.833 259.5,442.5 Z"/></g>
<g><path style="opacity:0.055" fill="#eff9fa" d="M 274.5,444.5 C 275.5,444.5 276.5,444.5 277.5,444.5C 276.486,445.765 274.986,446.431 273,446.5C 271.293,446.492 269.793,446.158 268.5,445.5C 270.735,445.795 272.735,445.461 274.5,444.5 Z"/></g>
<g><path style="opacity:0.008" fill="#fcfffe" d="M 298.5,444.5 C 299.167,444.5 299.5,444.833 299.5,445.5C 298.833,446.833 298.167,446.833 297.5,445.5C 297.5,444.833 297.833,444.5 298.5,444.5 Z"/></g>
</svg>
